<?xml version="1.0" encoding="UTF-8"?>
<!DOCTYPE svg PUBLIC "-//W3C//DTD SVG 1.1//EN" "http://www.w3.org/Graphics/SVG/1.1/DTD/svg11.dtd">
<!-- Creator: CorelDRAW -->
<svg xmlns="http://www.w3.org/2000/svg" xml:space="preserve" width="33mm" height="40mm" version="1.1" style="shape-rendering:geometricPrecision; text-rendering:geometricPrecision; image-rendering:optimizeQuality; fill-rule:evenodd; clip-rule:evenodd"
viewBox="0 0 3300 4000"
 xmlns:xlink="http://www.w3.org/1999/xlink"
 xmlns:xodm="http://www.corel.com/coreldraw/odm/2003">
 <defs>
  <style type="text/css">
   <![CDATA[
    .fil5 {fill:#00C7C7}
    .fil0 {fill:#018983}
    .fil7 {fill:#259B9B}
    .fil2 {fill:#63DADA}
    .fil3 {fill:#6FBCAA}
    .fil9 {fill:#7FE0E0}
    .fil1 {fill:#B0ECEC}
    .fil8 {fill:#E5FA75}
    .fil6 {fill:#FEEDBF}
    .fil4 {fill:#FF1964}
   ]]>
  </style>
 </defs>
 <g id="Camada_x0020_1">
  <metadata id="CorelCorpID_0Corel-Layer"/>
  <g id="_2604227161888">
   <g>
    <path class="fil0" d="M-4.48 256.3c248,-3.37 2755.95,-5.37 3229.59,1280.56 475.97,1292.25 -2922.75,2371.98 -3229.59,2466.54l0 -3747.1z"/>
    <path class="fil1" d="M-4.48 3893.05c171.58,-63.96 1015.42,-390.94 1679.86,-872.96 541.84,-393.09 1045.27,-822.47 862.82,-1414.91 -302.23,-732.13 -2286.13,-1488.17 -2542.68,-1569.42l0 3857.29z"/>
    <path class="fil2" d="M-4.48 3809.68c1381.99,-459.66 2722.06,-1286.08 2557.89,-1965.41 -82.46,-341.17 -816.51,-1101.09 -1657.41,-1469.8 -239.04,-78.99 -559.93,-100.51 -900.48,-116.86l0 3552.07z"/>
   </g>
   <g>
    <g>
     <path class="fil3" d="M95.65 563.41l-28.84 89.1 -11.04 34.15c-3.55,10.66 -6.99,21.43 -10.45,32.05 -13.47,41.48 -16.25,33.7 59.15,52.14 10.54,2.59 135.97,32.36 142.36,34.94 18.19,4.07 136.56,34.69 143.53,33.8 11.12,-1.47 12.46,-12.68 15.76,-24.19 3.16,-11.15 7.04,-22.59 10.26,-33.84 6.36,-22.37 13.62,-45.16 20.51,-66.9 7.12,-22.37 13.24,-44.68 20.25,-66.86 6.82,-21.57 14.73,-45.66 20.24,-66.9 3.09,-11.89 20.74,-59.34 17.64,-67.69 -4.26,-11.48 -12.93,-9.85 -26.86,-14.09 -8.33,-2.56 -28.29,-6.33 -34.8,-9.43l-36.78 -9.71c-68.08,-18.75 -138,-35.08 -205.95,-53.79 -17.69,-4.85 -33,-12.14 -46.63,-3.71 -4.88,3.03 -6.58,12.7 -9.4,21.76 -7.53,24.22 -15.68,45.89 -23.39,71.51 -4.79,15.93 -10.58,32.04 -15.56,47.66zm26.07 9.68c16.42,7.02 30.61,17.18 44.15,26.73l42.46 -22.01c2.98,-1.73 4.05,-1.7 6.61,-3.19 16.32,-9.53 32.65,-16.84 48.58,-25.67l24.4 -12.63c10.48,-4.66 47.14,-25.41 54.65,-28.61l18.63 -9.91 -198.18 -51.78 -41.3 127.07zm65.14 45.19l2.14 2.65c0.64,0.68 1.11,1.09 1.76,1.78 1.49,1.57 2.17,2.57 3.59,4.22 2.63,3.03 4.55,5 6.73,7.98l12.28 16.76c21.79,31.86 39.24,88.16 35.63,127.28l129.5 31.72 87.1 -285.92 -67.2 -17.68c-1.94,2.11 -67.74,36.16 -79.56,41.85 -13,6.27 -34.48,18.93 -46.51,24.38 -2.68,1.22 -3.76,2.35 -6.37,3.61l-79.09 41.37z"/>
     <path class="fil4" d="M233.43 855.67c-8.59,-3.28 -58.52,-14.2 -74.5,-18 -7.91,-1.89 -17.14,-3.52 -14.71,-12.49 2.37,-8.64 11.35,-5.7 19.32,-3.79l75.53 18 7.76 -33.6c-6.39,-2.58 -131.82,-32.35 -142.36,-34.94 -75.4,-18.44 -72.62,-10.66 -59.15,-52.14 3.46,-10.62 6.9,-21.39 10.45,-32.05l-60.25 31.18 0 273.44c39.41,7.09 81.15,3.26 120.07,-14.52l11.73 -5.37c12.31,-6.48 16.77,-8.5 28.19,-16.86 9.42,-6.87 23.24,-17.88 30.38,-26.05 23.45,-26.86 31.39,-36.15 47.54,-72.81zm-237.91 -255.56c6.28,-21.2 11.29,-38.55 12.64,-43.82 -4.29,0.58 -8.51,1.28 -12.64,2.06l0 41.76z"/>
     <path class="fil5" d="M57.03 394.71l-6.84 22.91 -42.03 138.67c-1.35,5.27 -6.36,22.62 -12.64,43.82l0 87.02 40.26 -132.78 42.89 -141.69 8.05 -26.5 30.95 -102.83 33.62 12.01 21.69 7.4 334.34 118.21c-3.08,3.19 -9.32,5.45 -13.22,7.54 -16.38,8.78 -46.92,25.51 -62.72,32.9l-34.8 18.59 36.78 9.71 102.64 -54.01c6.32,-3.52 20.76,-8.49 15.05,-22.24 -3.11,-7.49 -21.22,-11.96 -30.64,-15.19l-139.73 -49.19c-22.92,-7.83 -46.36,-17.18 -69.49,-24.69 -33.77,-10.96 -69.63,-25.04 -104.21,-36.71 -5.71,-1.93 -13,-4.28 -19.95,-6.72 -35.96,-0.62 -67.76,-0.93 -95.41,-1.07 -1.55,5.48 -3.32,11.96 -5.53,19.55 -4.74,16.3 -10.15,32.44 -14.79,48.73 -2.5,8.79 -11.16,40.76 -14.27,46.56zm-61.51 323.13l60.25 -31.18 11.04 -34.15c-4.79,0.91 -46.98,24.07 -53.32,27.2 -2.94,1.47 -5.77,2.98 -8.73,4.42 -3.63,1.77 -5.25,3.27 -9.24,4.47l0 29.24z"/>
     <path class="fil6" d="M461.32 854.66c-2.16,1.94 -18.3,11.35 -21.07,12.09 -1.37,1.44 -23.01,13.92 -25.54,14.52 -1.71,1.47 -7.17,4.52 -10.15,6.24 -3.75,2.23 -6.69,3.55 -11.03,5.93 -5.62,4.06 -29.45,16.46 -36.61,21.23l-93.5 52.64c-3.88,2.19 -5.91,3.84 -9.46,5.52 -3.65,1.76 -5.86,3.77 -9.43,5.59l-140.61 79.52c-3.88,2.12 -5.64,3.67 -9.48,5.49l-37.14 21c-5.54,2.96 -13.92,6.78 -12.86,17.28 0.77,7.85 10.41,13.31 18.7,9.24l112.26 -63.96c3.84,-1.94 4.87,-2.38 9.01,-5.11l28.76 -16.06c6.12,-3.25 12.39,-6.93 18.51,-10.6 3.32,-1.99 6.13,-3.47 9.6,-5.31l27.98 -16.08c3.37,-2.19 6.24,-3.06 9.66,-5.24l27.96 -16.14c17.9,-9.93 39.53,-22.92 56.33,-31.67 11.12,-5.8 33.15,-19.86 45.94,-26.44l84.31 -47.73c6.16,-3.4 13.39,-7.22 19.12,-10.81 11.73,-7.39 33.03,-18.6 46.71,-26.37 12.9,-7.34 35.56,-21.25 47.03,-27l32.22 -18.53c6.85,-4 28.84,-14.38 31.86,-20.3 5.08,-9.96 -4.35,-25.71 -21.02,-15.15l-93.41 52.77c-4.07,2.5 -5.76,3.52 -9.53,5.44 -3.42,1.75 -6.17,3.95 -9.42,5.56l-75.7 42.44z"/>
     <path class="fil4" d="M90.94 667.66l-21.94 67.54 179.99 43.75c3.61,-39.12 -13.84,-95.42 -35.63,-127.28l-12.28 -16.76c-2.18,-2.98 -4.1,-4.95 -6.73,-7.98 -1.42,-1.65 -2.1,-2.65 -3.59,-4.22 -0.65,-0.69 -1.12,-1.1 -1.76,-1.78l-2.14 -2.65 -83.9 43.67c-3.01,1.67 -9.01,4.97 -12.02,5.71z"/>
     <path class="fil6" d="M647.59 481.31c-32.56,0.07 -61.28,23.36 -64.78,63.76 -2.65,30.72 21.56,67.23 59.49,67.05 30.9,-0.12 61.39,-23.87 64.05,-63.31 1.06,-15.4 -3.83,-33.26 -13.52,-44.57 -11.73,-13.65 -25.93,-23 -45.24,-22.93z"/>
     <path class="fil7" d="M50.19 417.62l6.84 -22.91c-26.79,-0.15 -37.68,1.75 -61.51,-9.02l0 24.28c16.31,5.8 34.23,8.38 54.67,7.65z"/>
     <path class="fil8" d="M165.87 599.82l-31.21 16.43c-5.97,3.03 -28.49,15.61 -32.37,16.67l-11.35 34.74c3.01,-0.74 9.01,-4.04 12.02,-5.71l83.9 -43.67 79.09 -41.37c2.61,-1.26 3.69,-2.39 6.37,-3.61 12.03,-5.45 33.51,-18.11 46.51,-24.38 11.82,-5.69 77.62,-39.74 79.56,-41.85l-37.19 -9.27 -18.63 9.91c-7.51,3.2 -44.17,23.95 -54.65,28.61l-24.4 12.63c-15.93,8.83 -32.26,16.14 -48.58,25.67 -2.56,1.49 -3.63,1.46 -6.61,3.19l-42.46 22.01z"/>
     <path class="fil4" d="M35.78 554.35l-40.26 132.78 0 1.47c3.99,-1.2 5.61,-2.7 9.24,-4.47 2.96,-1.44 5.79,-2.95 8.73,-4.42 6.34,-3.13 48.53,-26.29 53.32,-27.2l28.84 -89.1c-10.71,-2.29 -20.42,-4.95 -31.26,-6.75 -9.23,-1.53 -19.92,-1.07 -28.61,-2.31z"/>
     <path class="fil3" d="M440.25 866.75c2.77,-0.74 18.91,-10.15 21.07,-12.09 6.78,-28.07 18.4,-58.76 26.17,-86.77 8.06,-29.14 17.99,-57.79 26.04,-86.91 7.93,-28.63 17.42,-58.33 26.21,-86.67l19.3 -65.25c0.91,-8.14 -7.53,-12.24 -12.87,-8.36 -5.76,4.13 -47.36,152.37 -53.58,171.39 -9.3,28.52 -16.65,58.5 -26.11,86.49l-26.23 88.17z"/>
     <path class="fil3" d="M233.43 855.67l160.1 37.77c4.34,-2.38 7.28,-3.7 11.03,-5.93 2.98,-1.72 8.44,-4.77 10.15,-6.24l-175.64 -41.88 -75.53 -18c-7.97,-1.91 -16.95,-4.85 -19.32,3.79 -2.43,8.97 6.8,10.6 14.71,12.49 15.98,3.8 65.91,14.72 74.5,18z"/>
     <path class="fil7" d="M86.72 386.16l-8.05 26.5c20.97,-5.04 44.81,-20.15 59.97,-35.49 17.62,-17.85 31.07,-44.68 34.34,-74.43l-21.69 -7.4c-1.8,13.89 -1.68,21.04 -7.96,34.2 -5.29,11.12 -7.83,16.43 -15.08,25.4 -5.43,6.71 -13.1,13.83 -19.26,18.52l-16.64 10.19c-2.04,0.93 -3.89,1.36 -5.63,2.51z"/>
     <path class="fil4" d="M102.29 632.92c3.88,-1.06 26.4,-13.64 32.37,-16.67l31.21 -16.43c-13.54,-9.55 -27.73,-19.71 -44.15,-26.73l-19.43 59.83z"/>
    </g>
    <g>
     <path class="fil3" d="M95.65 563.41l-28.84 89.1 -11.04 34.15c-3.55,10.66 -6.99,21.43 -10.45,32.05 -13.47,41.48 -16.25,33.7 59.15,52.14 10.54,2.59 135.97,32.36 142.36,34.94 18.19,4.07 136.56,34.69 143.53,33.8 11.12,-1.47 12.46,-12.68 15.76,-24.19 3.16,-11.15 7.04,-22.59 10.26,-33.84 6.36,-22.37 13.62,-45.16 20.51,-66.9 7.12,-22.37 13.24,-44.68 20.25,-66.86 6.82,-21.57 14.73,-45.66 20.24,-66.9 3.09,-11.89 20.74,-59.34 17.64,-67.69 -4.26,-11.48 -12.93,-9.85 -26.86,-14.09 -8.33,-2.56 -28.29,-6.33 -34.8,-9.43l-36.78 -9.71c-68.08,-18.75 -138,-35.08 -205.95,-53.79 -17.69,-4.85 -33,-12.14 -46.63,-3.71 -4.88,3.03 -6.58,12.7 -9.4,21.76 -7.53,24.22 -15.68,45.89 -23.39,71.51 -4.79,15.93 -10.58,32.04 -15.56,47.66zm26.07 9.68c16.42,7.02 30.61,17.18 44.15,26.73l42.46 -22.01c2.98,-1.73 4.05,-1.7 6.61,-3.19 16.32,-9.53 32.65,-16.84 48.58,-25.67l24.4 -12.63c10.48,-4.66 47.14,-25.41 54.65,-28.61l18.63 -9.91 -198.18 -51.78 -41.3 127.07zm65.14 45.19l2.14 2.65c0.64,0.68 1.11,1.09 1.76,1.78 1.49,1.57 2.17,2.57 3.59,4.22 2.63,3.03 4.55,5 6.73,7.98l12.28 16.76c21.79,31.86 39.24,88.16 35.63,127.28l129.5 31.72 87.1 -285.92 -67.2 -17.68c-1.94,2.11 -67.74,36.16 -79.56,41.85 -13,6.27 -34.48,18.93 -46.51,24.38 -2.68,1.22 -3.76,2.35 -6.37,3.61l-79.09 41.37z"/>
     <path class="fil4" d="M233.43 855.67c-8.59,-3.28 -58.52,-14.2 -74.5,-18 -7.91,-1.89 -17.14,-3.52 -14.71,-12.49 2.37,-8.64 11.35,-5.7 19.32,-3.79l75.53 18 7.76 -33.6c-6.39,-2.58 -131.82,-32.35 -142.36,-34.94 -75.4,-18.44 -72.62,-10.66 -59.15,-52.14 3.46,-10.62 6.9,-21.39 10.45,-32.05l-60.25 31.18 0 273.44c39.41,7.09 81.15,3.26 120.07,-14.52l11.73 -5.37c12.31,-6.48 16.77,-8.5 28.19,-16.86 9.42,-6.87 23.24,-17.88 30.38,-26.05 23.45,-26.86 31.39,-36.15 47.54,-72.81zm-237.91 -255.56c6.28,-21.2 11.29,-38.55 12.64,-43.82 -4.29,0.58 -8.51,1.28 -12.64,2.06l0 41.76z"/>
     <path class="fil5" d="M57.03 394.71l-6.84 22.91 -42.03 138.67c-1.35,5.27 -6.36,22.62 -12.64,43.82l0 87.02 40.26 -132.78 42.89 -141.69 8.05 -26.5 30.95 -102.83 33.62 12.01 21.69 7.4 334.34 118.21c-3.08,3.19 -9.32,5.45 -13.22,7.54 -16.38,8.78 -46.92,25.51 -62.72,32.9l-34.8 18.59 36.78 9.71 102.64 -54.01c6.32,-3.52 20.76,-8.49 15.05,-22.24 -3.11,-7.49 -21.22,-11.96 -30.64,-15.19l-139.73 -49.19c-22.92,-7.83 -46.36,-17.18 -69.49,-24.69 -33.77,-10.96 -69.63,-25.04 -104.21,-36.71 -10.09,-3.41 -25.13,-8.17 -34.48,-12.29l-24 -8.49c-53.55,-18.86 -46.19,-23.15 -62.41,32.54 -4.74,16.3 -10.15,32.44 -14.79,48.73 -2.5,8.79 -11.16,40.76 -14.27,46.56zm-61.51 323.13l60.25 -31.18 11.04 -34.15c-4.79,0.91 -46.98,24.07 -53.32,27.2 -2.94,1.47 -5.77,2.98 -8.73,4.42 -3.63,1.77 -5.25,3.27 -9.24,4.47l0 29.24z"/>
     <path class="fil6" d="M461.32 854.66c-2.16,1.94 -18.3,11.35 -21.07,12.09 -1.37,1.44 -23.01,13.92 -25.54,14.52 -1.71,1.47 -7.17,4.52 -10.15,6.24 -3.75,2.23 -6.69,3.55 -11.03,5.93 -5.62,4.06 -29.45,16.46 -36.61,21.23l-93.5 52.64c-3.88,2.19 -5.91,3.84 -9.46,5.52 -3.65,1.76 -5.86,3.77 -9.43,5.59l-140.61 79.52c-3.88,2.12 -5.64,3.67 -9.48,5.49l-37.14 21c-5.54,2.96 -13.92,6.78 -12.86,17.28 0.77,7.85 10.41,13.31 18.7,9.24l112.26 -63.96c3.84,-1.94 4.87,-2.38 9.01,-5.11l28.76 -16.06c6.12,-3.25 12.39,-6.93 18.51,-10.6 3.32,-1.99 6.13,-3.47 9.6,-5.31l27.98 -16.08c3.37,-2.19 6.24,-3.06 9.66,-5.24l27.96 -16.14c17.9,-9.93 39.53,-22.92 56.33,-31.67 11.12,-5.8 33.15,-19.86 45.94,-26.44l84.31 -47.73c6.16,-3.4 13.39,-7.22 19.12,-10.81 11.73,-7.39 33.03,-18.6 46.71,-26.37 12.9,-7.34 35.56,-21.25 47.03,-27l32.22 -18.53c6.85,-4 28.84,-14.38 31.86,-20.3 5.08,-9.96 -4.35,-25.71 -21.02,-15.15l-93.41 52.77c-4.07,2.5 -5.76,3.52 -9.53,5.44 -3.42,1.75 -6.17,3.95 -9.42,5.56l-75.7 42.44z"/>
     <path class="fil4" d="M90.94 667.66l-21.94 67.54 179.99 43.75c3.61,-39.12 -13.84,-95.42 -35.63,-127.28l-12.28 -16.76c-2.18,-2.98 -4.1,-4.95 -6.73,-7.98 -1.42,-1.65 -2.1,-2.65 -3.59,-4.22 -0.65,-0.69 -1.12,-1.1 -1.76,-1.78l-2.14 -2.65 -83.9 43.67c-3.01,1.67 -9.01,4.97 -12.02,5.71z"/>
     <path class="fil6" d="M647.59 481.31c-32.56,0.07 -61.28,23.36 -64.78,63.76 -2.65,30.72 21.56,67.23 59.49,67.05 30.9,-0.12 61.39,-23.87 64.05,-63.31 1.06,-15.4 -3.83,-33.26 -13.52,-44.57 -11.73,-13.65 -25.93,-23 -45.24,-22.93z"/>
     <path class="fil7" d="M50.19 417.62l6.84 -22.91c-26.79,-0.15 -37.68,1.75 -61.51,-9.02l0 24.28c16.31,5.8 34.23,8.38 54.67,7.65zm-54.67 -228.98c10.59,-4.12 23.82,-7.22 33.82,-7.52 10.77,-0.33 24.18,-0.92 35.82,2.62 25.99,7.88 40.45,16.88 56.23,32.62 11.2,11.21 26.59,36.52 27.11,50.52l24 8.49c-0.95,-24.08 -16.06,-52.12 -27.24,-65.31 -16.65,-19.67 -30.85,-31.96 -61.16,-43.72 -27.66,-10.76 -60.03,-10.35 -88.58,-1.29l0 23.59z"/>
     <path class="fil8" d="M165.87 599.82l-31.21 16.43c-5.97,3.03 -28.49,15.61 -32.37,16.67l-11.35 34.74c3.01,-0.74 9.01,-4.04 12.02,-5.71l83.9 -43.67 79.09 -41.37c2.61,-1.26 3.69,-2.39 6.37,-3.61 12.03,-5.45 33.51,-18.11 46.51,-24.38 11.82,-5.69 77.62,-39.74 79.56,-41.85l-37.19 -9.27 -18.63 9.91c-7.51,3.2 -44.17,23.95 -54.65,28.61l-24.4 12.63c-15.93,8.83 -32.26,16.14 -48.58,25.67 -2.56,1.49 -3.63,1.46 -6.61,3.19l-42.46 22.01z"/>
     <path class="fil4" d="M35.78 554.35l-40.26 132.78 0 1.47c3.99,-1.2 5.61,-2.7 9.24,-4.47 2.96,-1.44 5.79,-2.95 8.73,-4.42 6.34,-3.13 48.53,-26.29 53.32,-27.2l28.84 -89.1c-10.71,-2.29 -20.42,-4.95 -31.26,-6.75 -9.23,-1.53 -19.92,-1.07 -28.61,-2.31z"/>
     <path class="fil3" d="M440.25 866.75c2.77,-0.74 18.91,-10.15 21.07,-12.09 6.78,-28.07 18.4,-58.76 26.17,-86.77 8.06,-29.14 17.99,-57.79 26.04,-86.91 7.93,-28.63 17.42,-58.33 26.21,-86.67l19.3 -65.25c0.91,-8.14 -7.53,-12.24 -12.87,-8.36 -5.76,4.13 -47.36,152.37 -53.58,171.39 -9.3,28.52 -16.65,58.5 -26.11,86.49l-26.23 88.17z"/>
     <path class="fil3" d="M233.43 855.67l160.1 37.77c4.34,-2.38 7.28,-3.7 11.03,-5.93 2.98,-1.72 8.44,-4.77 10.15,-6.24l-175.64 -41.88 -75.53 -18c-7.97,-1.91 -16.95,-4.85 -19.32,3.79 -2.43,8.97 6.8,10.6 14.71,12.49 15.98,3.8 65.91,14.72 74.5,18z"/>
     <path class="fil7" d="M86.72 386.16l-8.05 26.5c20.97,-5.04 44.81,-20.15 59.97,-35.49 17.62,-17.85 31.07,-44.68 34.34,-74.43l-21.69 -7.4c-1.8,13.89 -1.68,21.04 -7.96,34.2 -5.29,11.12 -7.83,16.43 -15.08,25.4 -5.43,6.71 -13.1,13.83 -19.26,18.52l-16.64 10.19c-2.04,0.93 -3.89,1.36 -5.63,2.51z"/>
     <path class="fil4" d="M102.29 632.92c3.88,-1.06 26.4,-13.64 32.37,-16.67l31.21 -16.43c-13.54,-9.55 -27.73,-19.71 -44.15,-26.73l-19.43 59.83z"/>
    </g>
    <g>
     <path class="fil3" d="M95.65 563.41l-28.84 89.1 -11.04 34.15c-3.55,10.66 -6.99,21.43 -10.45,32.05 -13.47,41.48 -16.25,33.7 59.15,52.14 10.54,2.59 135.97,32.36 142.36,34.94 18.19,4.07 136.56,34.69 143.53,33.8 11.12,-1.47 12.46,-12.68 15.76,-24.19 3.16,-11.15 7.04,-22.59 10.26,-33.84 6.36,-22.37 13.62,-45.16 20.51,-66.9 7.12,-22.37 13.24,-44.68 20.25,-66.86 6.82,-21.57 14.73,-45.66 20.24,-66.9 3.09,-11.89 20.74,-59.34 17.64,-67.69 -4.26,-11.48 -12.93,-9.85 -26.86,-14.09 -8.33,-2.56 -28.29,-6.33 -34.8,-9.43l-36.78 -9.71c-68.08,-18.75 -138,-35.08 -205.95,-53.79 -17.69,-4.85 -33,-12.14 -46.63,-3.71 -4.88,3.03 -6.58,12.7 -9.4,21.76 -7.53,24.22 -15.68,45.89 -23.39,71.51 -4.79,15.93 -10.58,32.04 -15.56,47.66zm26.07 9.68c16.42,7.02 30.61,17.18 44.15,26.73l42.46 -22.01c2.98,-1.73 4.05,-1.7 6.61,-3.19 16.32,-9.53 32.65,-16.84 48.58,-25.67l24.4 -12.63c10.48,-4.66 47.14,-25.41 54.65,-28.61l18.63 -9.91 -198.18 -51.78 -41.3 127.07zm65.14 45.19l2.14 2.65c0.64,0.68 1.11,1.09 1.76,1.78 1.49,1.57 2.17,2.57 3.59,4.22 2.63,3.03 4.55,5 6.73,7.98l12.28 16.76c21.79,31.86 39.24,88.16 35.63,127.28l129.5 31.72 87.1 -285.92 -67.2 -17.68c-1.94,2.11 -67.74,36.16 -79.56,41.85 -13,6.27 -34.48,18.93 -46.51,24.38 -2.68,1.22 -3.76,2.35 -6.37,3.61l-79.09 41.37z"/>
     <path class="fil7" d="M233.43 855.67c-8.59,-3.28 -58.52,-14.2 -74.5,-18 -7.91,-1.89 -17.14,-3.52 -14.71,-12.49 2.37,-8.64 11.35,-5.7 19.32,-3.79l75.53 18 7.76 -33.6c-6.39,-2.58 -131.82,-32.35 -142.36,-34.94 -75.4,-18.44 -72.62,-10.66 -59.15,-52.14 3.46,-10.62 6.9,-21.39 10.45,-32.05l-60.25 31.18 0 273.44c39.41,7.09 81.15,3.26 120.07,-14.52l11.73 -5.37c12.31,-6.48 16.77,-8.5 28.19,-16.86 9.42,-6.87 23.24,-17.88 30.38,-26.05 23.45,-26.86 31.39,-36.15 47.54,-72.81zm-237.91 -255.56c6.28,-21.2 11.29,-38.55 12.64,-43.82 -4.29,0.58 -8.51,1.28 -12.64,2.06l0 41.76z"/>
     <path class="fil5" d="M57.03 394.71l-6.84 22.91 -42.03 138.67c-1.35,5.27 -6.36,22.62 -12.64,43.82l0 87.02 40.26 -132.78 42.89 -141.69 8.05 -26.5 29.57 -98.25 -26.53 -1.39 -3.67 12.9c-4.74,16.3 -10.15,32.44 -14.79,48.73 -2.5,8.79 -11.16,40.76 -14.27,46.56zm-61.51 323.13l60.25 -31.18 11.04 -34.15c-4.79,0.91 -46.98,24.07 -53.32,27.2 -2.94,1.47 -5.77,2.98 -8.73,4.42 -3.63,1.77 -5.25,3.27 -9.24,4.47l0 29.24zm137.46 -429.03l18.31 6.53 21.69 7.4 334.34 118.21c-3.08,3.19 -9.32,5.45 -13.22,7.54 -16.38,8.78 -46.92,25.51 -62.72,32.9l-34.8 18.59 36.78 9.71 102.64 -54.01c6.32,-3.52 20.76,-8.49 15.05,-22.24 -3.11,-7.49 -21.22,-11.96 -30.64,-15.19l-139.73 -49.19c-22.92,-7.83 -46.36,-17.18 -69.49,-24.69 -27.78,-9.02 -56.97,-20.13 -85.69,-30.29 -30.64,-1.85 -61.49,-3.59 -92.52,-5.27z"/>
     <path class="fil9" d="M461.32 854.66c-2.16,1.94 -18.3,11.35 -21.07,12.09 -1.37,1.44 -23.01,13.92 -25.54,14.52 -1.71,1.47 -7.17,4.52 -10.15,6.24 -3.75,2.23 -6.69,3.55 -11.03,5.93 -5.62,4.06 -29.45,16.46 -36.61,21.23l-93.5 52.64c-3.88,2.19 -5.91,3.84 -9.46,5.52 -3.65,1.76 -5.86,3.77 -9.43,5.59l-140.61 79.52c-3.88,2.12 -5.64,3.67 -9.48,5.49l-37.14 21c-5.54,2.96 -13.92,6.78 -12.86,17.28 0.77,7.85 10.41,13.31 18.7,9.24l112.26 -63.96c3.84,-1.94 4.87,-2.38 9.01,-5.11l28.76 -16.06c6.12,-3.25 12.39,-6.93 18.51,-10.6 3.32,-1.99 6.13,-3.47 9.6,-5.31l27.98 -16.08c3.37,-2.19 6.24,-3.06 9.66,-5.24l27.96 -16.14c17.9,-9.93 39.53,-22.92 56.33,-31.67 11.12,-5.8 33.15,-19.86 45.94,-26.44l84.31 -47.73c6.16,-3.4 13.39,-7.22 19.12,-10.81 11.73,-7.39 33.03,-18.6 46.71,-26.37 12.9,-7.34 35.56,-21.25 47.03,-27l32.22 -18.53c6.85,-4 28.84,-14.38 31.86,-20.3 5.08,-9.96 -4.35,-25.71 -21.02,-15.15l-93.41 52.77c-4.07,2.5 -5.76,3.52 -9.53,5.44 -3.42,1.75 -6.17,3.95 -9.42,5.56l-75.7 42.44z"/>
     <path class="fil7" d="M90.94 667.66l-21.94 67.54 179.99 43.75c3.61,-39.12 -13.84,-95.42 -35.63,-127.28l-12.28 -16.76c-2.18,-2.98 -4.1,-4.95 -6.73,-7.98 -1.42,-1.65 -2.1,-2.65 -3.59,-4.22 -0.65,-0.69 -1.12,-1.1 -1.76,-1.78l-2.14 -2.65 -83.9 43.67c-3.01,1.67 -9.01,4.97 -12.02,5.71z"/>
     <path class="fil7" d="M647.59 481.31c-32.56,0.07 -61.28,23.36 -64.78,63.76 -2.65,30.72 21.56,67.23 59.49,67.05 30.9,-0.12 61.39,-23.87 64.05,-63.31 1.06,-15.4 -3.83,-33.26 -13.52,-44.57 -11.73,-13.65 -25.93,-23 -45.24,-22.93z"/>
     <path class="fil7" d="M50.19 417.62l6.84 -22.91c-26.79,-0.15 -37.68,1.75 -61.51,-9.02l0 24.28c16.31,5.8 34.23,8.38 54.67,7.65z"/>
     <path class="fil5" d="M165.87 599.82l-31.21 16.43c-5.97,3.03 -28.49,15.61 -32.37,16.67l-11.35 34.74c3.01,-0.74 9.01,-4.04 12.02,-5.71l83.9 -43.67 79.09 -41.37c2.61,-1.26 3.69,-2.39 6.37,-3.61 12.03,-5.45 33.51,-18.11 46.51,-24.38 11.82,-5.69 77.62,-39.74 79.56,-41.85l-37.19 -9.27 -18.63 9.91c-7.51,3.2 -44.17,23.95 -54.65,28.61l-24.4 12.63c-15.93,8.83 -32.26,16.14 -48.58,25.67 -2.56,1.49 -3.63,1.46 -6.61,3.19l-42.46 22.01z"/>
     <path class="fil7" d="M35.78 554.35l-40.26 132.78 0 1.47c3.99,-1.2 5.61,-2.7 9.24,-4.47 2.96,-1.44 5.79,-2.95 8.73,-4.42 6.34,-3.13 48.53,-26.29 53.32,-27.2l28.84 -89.1c-10.71,-2.29 -20.42,-4.95 -31.26,-6.75 -9.23,-1.53 -19.92,-1.07 -28.61,-2.31z"/>
     <path class="fil3" d="M440.25 866.75c2.77,-0.74 18.91,-10.15 21.07,-12.09 6.78,-28.07 18.4,-58.76 26.17,-86.77 8.06,-29.14 17.99,-57.79 26.04,-86.91 7.93,-28.63 17.42,-58.33 26.21,-86.67l19.3 -65.25c0.91,-8.14 -7.53,-12.24 -12.87,-8.36 -5.76,4.13 -47.36,152.37 -53.58,171.39 -9.3,28.52 -16.65,58.5 -26.11,86.49l-26.23 88.17z"/>
     <path class="fil3" d="M233.43 855.67l160.1 37.77c4.34,-2.38 7.28,-3.7 11.03,-5.93 2.98,-1.72 8.44,-4.77 10.15,-6.24l-175.64 -41.88 -75.53 -18c-7.97,-1.91 -16.95,-4.85 -19.32,3.79 -2.43,8.97 6.8,10.6 14.71,12.49 15.98,3.8 65.91,14.72 74.5,18z"/>
     <path class="fil7" d="M86.72 386.16l-8.05 26.5c20.97,-5.04 44.81,-20.15 59.97,-35.49 17.62,-17.85 31.07,-44.68 34.34,-74.43l-21.69 -7.4c-1.8,13.89 -1.68,21.04 -7.96,34.2 -5.29,11.12 -7.83,16.43 -15.08,25.4 -5.43,6.71 -13.1,13.83 -19.26,18.52l-16.64 10.19c-2.04,0.93 -3.89,1.36 -5.63,2.51z"/>
     <path class="fil7" d="M102.29 632.92c3.88,-1.06 26.4,-13.64 32.37,-16.67l31.21 -16.43c-13.54,-9.55 -27.73,-19.71 -44.15,-26.73l-19.43 59.83z"/>
    </g>
   </g>
  </g>
 </g>
</svg>
