<?xml version="1.0" encoding="UTF-8"?>
<!DOCTYPE svg PUBLIC "-//W3C//DTD SVG 1.1//EN" "http://www.w3.org/Graphics/SVG/1.1/DTD/svg11.dtd">
<!-- Creator: CorelDRAW -->
<svg xmlns="http://www.w3.org/2000/svg" xml:space="preserve" width="25.29mm" height="20mm" version="1.1" style="shape-rendering:geometricPrecision; text-rendering:geometricPrecision; image-rendering:optimizeQuality; fill-rule:evenodd; clip-rule:evenodd"
viewBox="0 0 2529 2000"
 xmlns:xlink="http://www.w3.org/1999/xlink"
 xmlns:xodm="http://www.corel.com/coreldraw/odm/2003">
 <defs>
  <style type="text/css">
   <![CDATA[
    .fil0 {fill:#521302}
    .fil2 {fill:#B02A21}
    .fil1 {fill:#EB4328}
    .fil3 {fill:white}
   ]]>
  </style>
 </defs>
 <g id="Camada_x0020_1">
  <metadata id="CorelCorpID_0Corel-Layer"/>
  <g id="_2910086692032">
   <path class="fil0" d="M2042.81 1629.41c-17.87,19.11 -41.26,38.98 -68.73,59.2 -165.93,122.12 -480.43,256.49 -623.42,305.7 -153.7,52.9 -449.08,-96.28 -581.58,-169.81 -189.04,-104.92 -433.09,-270.09 -561.9,-442.23 -3.11,-4.17 -5.98,-8.47 -9.05,-12.64 -3.26,-4.45 -6.46,-8.98 -9.6,-13.52 -0.05,-0.08 -0.1,-0.16 -0.16,-0.24 -2.7,-3.85 -5.38,-7.73 -8.03,-11.64l-79.89 -115.74 12.11 -0.19c-68.71,-137.2 -109.94,-292.83 -116.98,-442.5 -10.09,-214.6 49.78,-427.09 206.52,-579.94 156.25,-152.38 379.25,-218.87 594.37,-196.05 180.53,19.15 357.65,102.17 466.2,248.5 88.76,-128.33 230.35,-204.92 383.2,-235.6 156.58,-31.43 332.77,-16.12 478.98,48.9 174.33,65.95 316.02,263.82 368.35,437.62l0.57 1.97c61.88,225.74 22.8,485.05 -76.74,694.52 -68.44,144.03 -229.62,343.68 -374.22,423.69z"/>
   <g>
    <path class="fil1" d="M1310.5 336.98c145.69,-257.08 530.87,-302.5 783.06,-189.09 148.35,54.84 274.91,232.93 320.73,385.1 60,218.87 12.37,460.47 -71.68,637.36 -67.29,141.6 -227.63,331.45 -351.69,393.28 -93.09,115.76 -501.65,295.83 -667.07,352.76 -180.38,62.08 -842.13,-304.77 -1050.69,-583.5 -2.6,-3.47 -6.46,-9.1 -8.58,-12 -2.18,-2.97 -5.88,-8.18 -8.74,-12.33 -200.08,-285.33 -275.74,-771.1 3.8,-1043.71 285.59,-278.51 799.67,-214.08 969.26,92.95 69.65,1.12 32.58,10.57 81.6,-20.82zm-53.88 -111.48c0,0 0,0 0,0z"/>
    <path class="fil2" d="M255.84 1308.56c2.86,4.15 6.56,9.36 8.74,12.33 2.12,2.9 5.98,8.53 8.58,12 208.56,278.73 870.31,645.58 1050.69,583.5 165.42,-56.93 573.98,-237 667.07,-352.76 -168.39,38.53 -279.39,103.37 -482.37,114.23 -527.96,28.26 -511.59,-254.2 -758.75,-379.55 -216.82,-109.96 -323.81,7.7 -493.96,10.25z"/>
    <path class="fil3" d="M2243.71 320.43c-186.47,-226.54 -359.19,-110.48 -256.03,144.34 148.19,366.14 576.94,245.55 256.03,-144.34z"/>
    <path class="fil0" d="M1745.63 702.35c73.25,-6.91 123.21,44.99 183.66,114.65 42.45,-92.42 -43.2,-200.06 -108.97,-222.86 -76.62,-26.55 -153.19,-8.41 -199.98,37.94 -49.81,49.35 -69.07,126.68 -59,193.93 48.74,-55.82 72.65,-113.13 184.29,-123.66z"/>
    <path class="fil0" d="M1439.09 795.17c-74.18,79.73 -168.02,152.78 -290.1,68.43 -42.27,-29.2 -40.93,-45.9 -76.84,-68.49 -15.53,302.35 400.05,284.5 366.94,0.06z"/>
    <path class="fil0" d="M955.19 814.14c13.51,-58.76 -26.81,-140.36 -68.05,-181.78 -112.24,-112.78 -300.7,-48.68 -310.5,168.68 77.21,-43.46 156.16,-159.18 295.8,-60.14 20.29,14.38 66.54,54.14 82.75,73.24z"/>
   </g>
  </g>
 </g>
</svg>
