<?xml version="1.0" encoding="UTF-8"?>
<!DOCTYPE svg PUBLIC "-//W3C//DTD SVG 1.1//EN" "http://www.w3.org/Graphics/SVG/1.1/DTD/svg11.dtd">
<!-- Creator: CorelDRAW -->
<svg xmlns="http://www.w3.org/2000/svg" xml:space="preserve" width="25mm" height="29.06mm" version="1.1" style="shape-rendering:geometricPrecision; text-rendering:geometricPrecision; image-rendering:optimizeQuality; fill-rule:evenodd; clip-rule:evenodd"
viewBox="0 0 2500 2906"
 xmlns:xlink="http://www.w3.org/1999/xlink"
 xmlns:xodm="http://www.corel.com/coreldraw/odm/2003">
 <defs>
  <style type="text/css">
   <![CDATA[
    .fil2 {fill:#211E1E}
    .fil13 {fill:#23231B}
    .fil8 {fill:#241D15}
    .fil3 {fill:#241D1C}
    .fil27 {fill:#939293}
    .fil0 {fill:#CC7C1B}
    .fil19 {fill:#CC831B}
    .fil5 {fill:#D47B14}
    .fil4 {fill:#D47C1A}
    .fil7 {fill:#D4821B}
    .fil9 {fill:#EBBB33}
    .fil21 {fill:#EBBB3B}
    .fil10 {fill:#ECB632}
    .fil20 {fill:#EDEE6A}
    .fil1 {fill:#F1EE61}
    .fil6 {fill:#F1EE65}
    .fil23 {fill:#F2EC5D}
    .fil15 {fill:#F3BA33}
    .fil17 {fill:#F3ED6A}
    .fil14 {fill:#F4B533}
    .fil11 {fill:#F4EB64}
    .fil12 {fill:#F4FAAC}
    .fil26 {fill:#F5EB8D}
    .fil16 {fill:#F5FAB3}
    .fil25 {fill:#F9F898}
    .fil22 {fill:#FAF7A7}
    .fil28 {fill:#FAFAB3}
    .fil18 {fill:#FAFBAC}
    .fil24 {fill:#FEE465}
   ]]>
  </style>
 </defs>
 <g id="Camada_x0020_1">
  <metadata id="CorelCorpID_0Corel-Layer"/>
  <g id="_2910079819040">
   <path class="fil0" d="M1609.59 2652.86l-52.36 0 0 150.52 -98.17 0 0 -196.34 556.29 0 0 196.34 -405.76 0 0 -150.52zm562.82 -202.88l248.69 0 0 52.35 -248.69 0 0 -52.35zm52.36 -104.72l143.98 0 0 52.36 -143.98 0 0 -52.36zm-52.36 -654.44l45.82 0 0 706.8 -45.82 0 0 -706.8zm52.36 45.81l143.98 0 0 562.82 -143.98 0 0 -562.82zm-104.71 -52.36l0 6.55 45.81 0 0 706.8 -45.81 0 0 6.55 45.81 0 0 98.16 -45.81 0 0 45.81 -52.36 0 0 6.55 52.36 0 0 202.88 248.69 0 0 -150.53 -143.98 0 0 45.82 98.17 0 0 52.35 -150.53 0 0 -150.52 248.69 0 0 248.69 -353.4 0 0 -202.88 -608.64 0 0 -52.36 -464.66 0 0 52.36 6.55 0 0 -45.81 451.57 0 0 45.81 -45.81 0 0 255.24 45.81 0 0 52.35 6.54 0 0 -98.17 962.04 0 0 45.82 6.55 0 0 -1164.92 52.35 0 0 -412.31 -6.54 0 0 405.76 -52.36 0 0 713.35 -45.81 0 0 -713.35 -202.88 0 0 -1171.46 -52.35 0 0 6.54 45.81 0 0 1164.92 -45.81 0z"/>
   <path class="fil0" d="M2224.77 617.52l143.98 0 0 608.64 -143.98 0 0 -608.64zm0 -104.71l143.98 0 0 52.35 -143.98 0 0 -52.35zm-1223.82 -458.12l0 -45.81 451.57 0 0 45.81 -45.81 0 0 255.24 45.81 0 0 52.35 6.54 0 0 -98.16 556.29 0 0 150.52 150.52 0 0 45.81 6.54 0 0 -45.81 248.69 0 0 52.35 -248.69 0 0 45.82 45.82 0 0 765.7 157.06 0 0 -765.7 52.36 0 0 -458.12 -6.55 0 0 307.59 -45.81 0 0 -202.88 -157.06 0 0 150.53 52.35 0 0 -104.72 52.36 0 0 157.07 -150.53 0 0 -255.23 -52.35 0 0 248.69 -19.64 0 0 6.54 13.09 0 0 45.81 -91.62 0 0 -91.62 45.81 0 0 -209.42 -52.35 0 0 150.52 -405.76 0 0 -150.52 -52.36 0 0 150.52 -98.17 0 0 -255.24 -464.66 0 0 52.36 6.55 0z"/>
   <polygon class="fil0" points="32.36,2449.98 274.51,2449.98 274.51,2443.43 281.05,2443.43 281.05,2502.33 32.36,2502.33 32.36,2548.14 287.6,2548.14 287.6,2705.21 137.07,2705.21 137.07,2652.86 235.24,2652.86 235.24,2600.5 84.72,2600.5 84.72,2757.57 333.41,2757.57 333.41,2554.69 385.77,2554.69 385.77,2548.14 339.95,2548.14 339.95,2502.33 287.6,2502.33 287.6,2404.17 281.05,2404.17 281.05,2397.62 235.24,2397.62 235.24,2404.17 228.7,2404.17 228.7,2397.62 84.72,2397.62 84.72,2351.81 91.26,2351.81 91.26,2345.26 235.24,2345.26 235.24,2299.45 84.72,2299.45 84.72,1736.63 235.24,1736.63 235.24,1690.82 287.6,1690.82 287.6,1684.27 78.17,1684.27 78.17,2397.62 38.91,2397.62 38.91,2404.17 32.36,2404.17 "/>
   <polygon class="fil1" points="235.24,1226.16 235.24,617.52 130.53,617.52 130.53,1226.16 "/>
   <polygon class="fil1" points="2322.94,1226.16 2322.94,617.52 2224.77,617.52 2224.77,1226.16 "/>
   <polygon class="fil1" points="235.24,2299.45 235.24,1736.63 130.53,1736.63 130.53,2299.45 "/>
   <polygon class="fil2" points="385.77,2600.5 392.31,2600.5 392.31,2607.04 438.12,2607.04 438.12,2652.86 1000.95,2652.86 1000.95,2607.04 1053.3,2607.04 1053.3,2600.5 1452.52,2600.5 1452.52,2554.69 1000.95,2554.69 1000.95,2600.5 438.12,2600.5 438.12,2502.33 339.95,2502.33 339.95,2548.14 385.77,2548.14 "/>
   <polygon class="fil1" points="2231.31,2299.45 2231.31,2292.91 2322.94,2292.91 2322.94,1736.63 2224.77,1736.63 2224.77,2299.45 "/>
   <polygon class="fil3" points="32.36,2803.38 32.36,2404.17 38.91,2404.17 38.91,2397.62 78.17,2397.62 78.17,1684.27 32.36,1684.27 32.36,2397.62 -20,2397.62 -20,2803.38 "/>
   <polygon class="fil3" points="1000.95,107.05 1000.95,54.69 32.36,54.69 32.36,107.05 "/>
   <polygon class="fil2" points="2421.1,107.05 2421.1,54.69 1459.06,54.69 1459.06,107.05 "/>
   <polygon class="fil4" points="182.89,257.57 182.89,309.93 235.24,309.93 235.24,159.4 84.72,159.4 84.72,362.28 32.36,362.28 32.36,414.64 38.91,414.64 38.91,408.09 287.6,408.09 287.6,414.64 333.41,414.64 333.41,512.81 339.95,512.81 339.95,414.64 438.12,414.64 438.12,408.09 339.95,408.09 339.95,362.28 353.04,362.28 353.04,355.74 339.95,355.74 339.95,107.05 287.6,107.05 287.6,362.28 130.53,362.28 130.53,205.21 189.43,205.21 189.43,257.57 "/>
   <polygon class="fil3" points="1000.95,2855.74 1000.95,2809.92 32.36,2809.92 32.36,2855.74 "/>
   <polygon class="fil3" points="2421.1,2855.74 2421.1,2809.92 1459.06,2809.92 1459.06,2855.74 "/>
   <polygon class="fil3" points="333.41,2502.33 333.41,2397.62 287.6,2397.62 287.6,1690.82 235.24,1690.82 235.24,2397.62 281.05,2397.62 281.05,2404.17 287.6,2404.17 287.6,2502.33 "/>
   <polygon class="fil3" points="287.6,1278.51 287.6,519.35 281.05,519.35 281.05,512.81 235.24,512.81 235.24,1278.51 "/>
   <polygon class="fil0" points="32.36,2803.38 32.36,2809.92 1000.95,2809.92 1000.95,2855.74 1053.3,2855.74 1053.3,2607.04 1000.95,2607.04 1000.95,2803.38 896.24,2803.38 896.24,2652.86 843.88,2652.86 843.88,2803.38 438.12,2803.38 438.12,2607.04 392.31,2607.04 392.31,2600.5 385.77,2600.5 385.77,2803.38 "/>
   <polygon class="fil4" points="2322.94,1533.75 2375.29,1533.75 2375.29,1330.87 2224.77,1330.87 2224.77,1631.91 2421.1,1631.91 2421.1,1684.27 2427.65,1684.27 2427.65,1285.06 2421.1,1285.06 2421.1,1586.1 2270.58,1586.1 2270.58,1376.68 2322.94,1376.68 "/>
   <polygon class="fil3" points="2218.23,1278.51 2218.23,512.81 2172.41,512.81 2172.41,1278.51 "/>
   <polygon class="fil3" points="2421.1,512.81 2375.29,512.81 2375.29,1278.51 2421.1,1278.51 "/>
   <polygon class="fil3" points="78.17,1278.51 78.17,519.35 32.36,519.35 32.36,1278.51 "/>
   <polygon class="fil5" points="130.53,1533.75 130.53,1376.68 182.89,1376.68 182.89,1383.22 189.43,1383.22 189.43,1586.1 32.36,1586.1 32.36,1631.91 235.24,1631.91 235.24,1330.87 84.72,1330.87 84.72,1533.75 "/>
   <polygon class="fil0" points="32.36,466.99 32.36,519.35 78.17,519.35 78.17,1278.51 235.24,1278.51 235.24,1226.16 84.72,1226.16 84.72,617.52 235.24,617.52 235.24,565.16 84.72,565.16 84.72,512.81 281.05,512.81 281.05,519.35 287.6,519.35 287.6,460.45 281.05,460.45 281.05,466.99 "/>
   <polygon class="fil3" points="2421.1,1684.27 2375.29,1684.27 2375.29,2397.62 2421.1,2397.62 "/>
   <polygon class="fil3" points="2172.41,2397.62 2218.23,2397.62 2218.23,1690.82 2172.41,1690.82 "/>
   <polygon class="fil6" points="130.53,1684.27 287.6,1684.27 287.6,1278.51 130.53,1278.51 130.53,1330.87 235.24,1330.87 235.24,1638.46 130.53,1638.46 "/>
   <polygon class="fil7" points="1256.18,2757.57 1158.02,2757.57 1158.02,2751.02 1151.47,2751.02 1151.47,2705.21 1301.99,2705.21 1301.99,2855.74 1354.35,2855.74 1354.35,2652.86 1099.12,2652.86 1099.12,2803.38 1256.18,2803.38 "/>
   <polygon class="fil4" points="1151.47,309.93 1151.47,159.4 1301.99,159.4 1301.99,211.76 1203.83,211.76 1203.83,257.57 1354.35,257.57 1354.35,107.05 1099.12,107.05 1099.12,309.93 "/>
   <polygon class="fil8" points="438.12,309.93 1000.95,309.93 1000.95,257.57 444.66,257.57 444.66,264.12 438.12,264.12 "/>
   <polygon class="fil6" points="2322.94,1684.27 2322.94,1651.55 2316.39,1651.55 2316.39,1638.46 2218.23,1638.46 2218.23,1330.87 2322.94,1330.87 2322.94,1278.51 2172.41,1278.51 2172.41,1684.27 "/>
   <polygon class="fil9" points="2322.94,617.52 2322.94,1226.16 2368.75,1226.16 2368.75,617.52 "/>
   <polygon class="fil9" points="130.53,1226.16 130.53,617.52 84.72,617.52 84.72,1226.16 "/>
   <polygon class="fil10" points="2322.94,1278.51 2322.94,1330.87 2375.29,1330.87 2375.29,1533.75 2322.94,1533.75 2322.94,1579.56 2277.12,1579.56 2277.12,1383.22 2316.39,1383.22 2316.39,1389.77 2322.94,1389.77 2322.94,1376.68 2270.58,1376.68 2270.58,1586.1 2421.1,1586.1 2421.1,1285.06 2427.65,1285.06 2427.65,519.35 2473.46,519.35 2473.46,512.81 2421.1,512.81 2421.1,1278.51 "/>
   <polygon class="fil9" points="2231.31,2299.45 2368.75,2299.45 2368.75,1736.63 2322.94,1736.63 2322.94,2292.91 2231.31,2292.91 "/>
   <polygon class="fil9" points="130.53,2299.45 130.53,1736.63 84.72,1736.63 84.72,2299.45 "/>
   <polygon class="fil3" points="2015.35,2652.86 2015.35,2607.04 1459.06,2607.04 1459.06,2652.86 "/>
   <polygon class="fil3" points="2015.35,309.93 2015.35,264.12 1459.06,264.12 1459.06,309.93 "/>
   <polygon class="fil8" points="1452.52,2908.09 1452.52,2855.74 1000.95,2855.74 1000.95,2908.09 "/>
   <polygon class="fil3" points="1452.52,362.28 1452.52,309.93 1000.95,309.93 1000.95,362.28 "/>
   <polygon class="fil10" points="182.89,1383.22 182.89,1579.56 130.53,1579.56 130.53,1533.75 84.72,1533.75 84.72,1330.87 130.53,1330.87 130.53,1278.51 32.36,1278.51 32.36,1586.1 189.43,1586.1 189.43,1383.22 "/>
   <polygon class="fil11" points="843.88,2757.57 843.88,2705.21 444.66,2705.21 444.66,2659.4 451.21,2659.4 451.21,2652.86 438.12,2652.86 438.12,2751.02 444.66,2751.02 444.66,2757.57 "/>
   <polygon class="fil12" points="2015.35,2711.76 2015.35,2652.86 1609.59,2652.86 1609.59,2705.21 2008.8,2705.21 2008.8,2711.76 "/>
   <polygon class="fil9" points="2015.35,205.21 1609.59,205.21 1609.59,257.57 2015.35,257.57 "/>
   <polygon class="fil9" points="843.88,257.57 843.88,205.21 438.12,205.21 438.12,257.57 "/>
   <polygon class="fil3" points="32.36,512.81 32.36,107.05 -20,107.05 -20,512.81 "/>
   <polygon class="fil13" points="287.6,1278.51 287.6,1684.27 339.95,1684.27 339.95,1278.51 "/>
   <polygon class="fil3" points="32.36,1684.27 32.36,1278.51 -20,1278.51 -20,1684.27 "/>
   <polygon class="fil12" points="2015.35,159.4 2015.35,107.05 1609.59,107.05 1609.59,152.86 1616.13,152.86 1616.13,159.4 "/>
   <polygon class="fil11" points="2015.35,2757.57 2015.35,2711.76 2008.8,2711.76 2008.8,2705.21 1609.59,2705.21 1609.59,2757.57 "/>
   <polygon class="fil12" points="843.88,159.4 843.88,107.05 444.66,107.05 444.66,159.4 "/>
   <polygon class="fil12" points="843.88,2705.21 843.88,2652.86 451.21,2652.86 451.21,2659.4 444.66,2659.4 444.66,2705.21 "/>
   <polygon class="fil3" points="1000.95,54.69 1452.52,54.69 1452.52,8.88 1000.95,8.88 "/>
   <polygon class="fil14" points="1354.35,211.76 1354.35,257.57 1203.83,257.57 1203.83,211.76 1301.99,211.76 1301.99,205.21 1158.02,205.21 1158.02,159.4 1151.47,159.4 1151.47,309.93 1406.71,309.93 1406.71,107.05 1400.16,107.05 1400.16,211.76 "/>
   <polygon class="fil6" points="843.88,205.21 843.88,159.4 444.66,159.4 444.66,107.05 438.12,107.05 438.12,205.21 "/>
   <polygon class="fil6" points="2015.35,205.21 2015.35,159.4 1616.13,159.4 1616.13,152.86 1609.59,152.86 1609.59,205.21 "/>
   <polygon class="fil9" points="843.88,2757.57 444.66,2757.57 444.66,2751.02 438.12,2751.02 438.12,2803.38 843.88,2803.38 "/>
   <polygon class="fil9" points="2015.35,2757.57 1609.59,2757.57 1609.59,2803.38 2015.35,2803.38 "/>
   <polygon class="fil2" points="2427.65,2397.62 2427.65,2803.38 2473.46,2803.38 2473.46,2397.62 "/>
   <polygon class="fil3" points="2473.46,512.81 2473.46,107.05 2427.65,107.05 2427.65,512.81 "/>
   <polygon class="fil3" points="2473.46,1278.51 2427.65,1278.51 2427.65,1684.27 2473.46,1684.27 "/>
   <polygon class="fil3" points="2165.87,1278.51 2120.06,1278.51 2120.06,1684.27 2165.87,1684.27 "/>
   <polygon class="fil15" points="84.72,2607.04 78.17,2607.04 78.17,2757.57 38.91,2757.57 38.91,2751.02 32.36,2751.02 32.36,2803.38 385.77,2803.38 385.77,2757.57 339.95,2757.57 339.95,2554.69 333.41,2554.69 333.41,2757.57 84.72,2757.57 "/>
   <polygon class="fil16" points="1406.71,107.05 1406.71,54.69 1053.3,54.69 1053.3,107.05 "/>
   <polygon class="fil15" points="1301.99,2855.74 1301.99,2757.57 1256.18,2757.57 1256.18,2803.38 1099.12,2803.38 1099.12,2757.57 1053.3,2757.57 1053.3,2855.74 "/>
   <polygon class="fil10" points="2224.77,2652.86 2224.77,2607.04 2368.75,2607.04 2368.75,2757.57 2067.7,2757.57 2067.7,2796.83 2414.56,2796.83 2414.56,2757.57 2375.29,2757.57 2375.29,2600.5 2218.23,2600.5 2218.23,2652.86 "/>
   <path class="fil14" d="M182.89 257.57l-45.82 0 0 -45.81 45.82 0 0 45.81zm52.35 0l0 52.36 -52.35 0 0 -52.36 6.54 0 0 -52.36 -58.9 0 0 157.07 157.07 0 0 -196.33 -6.55 0 0 91.62 -45.81 0z"/>
   <polygon class="fil17" points="1053.3,2646.31 1053.3,2757.57 1099.12,2757.57 1099.12,2652.86 1354.35,2652.86 1354.35,2751.02 1400.16,2751.02 1400.16,2652.86 1406.71,2652.86 1406.71,2600.5 1053.3,2600.5 1053.3,2607.04 1400.16,2607.04 1400.16,2646.31 "/>
   <polygon class="fil12" points="2414.56,257.57 2421.1,257.57 2421.1,107.05 2172.41,107.05 2172.41,159.4 2414.56,159.4 "/>
   <polygon class="fil16" points="1053.3,2607.04 1053.3,2646.31 1400.16,2646.31 1400.16,2607.04 "/>
   <polygon class="fil15" points="2322.94,257.57 2270.58,257.57 2270.58,309.93 2218.23,309.93 2218.23,257.57 2172.41,257.57 2172.41,362.28 2322.94,362.28 "/>
   <polygon class="fil11" points="235.24,2600.5 235.24,2652.86 137.07,2652.86 137.07,2705.21 287.6,2705.21 287.6,2548.14 32.36,2548.14 32.36,2554.69 281.05,2554.69 281.05,2600.5 "/>
   <polygon class="fil18" points="2218.23,2607.04 2218.23,2600.5 2414.56,2600.5 2414.56,2646.31 2421.1,2646.31 2421.1,2554.69 2172.41,2554.69 2172.41,2607.04 "/>
   <polygon class="fil0" points="1053.3,309.93 1053.3,296.84 1046.76,296.84 1046.76,61.24 1053.3,61.24 1053.3,54.69 1000.95,54.69 1000.95,309.93 "/>
   <polygon class="fil16" points="235.24,159.4 281.05,159.4 281.05,107.05 32.36,107.05 32.36,152.86 235.24,152.86 "/>
   <polygon class="fil18" points="32.36,2554.69 32.36,2607.04 45.45,2607.04 45.45,2600.5 281.05,2600.5 281.05,2554.69 "/>
   <polygon class="fil0" points="438.12,309.93 438.12,264.12 444.66,264.12 444.66,257.57 438.12,257.57 438.12,107.05 385.77,107.05 385.77,309.93 "/>
   <polygon class="fil11" points="130.53,1579.56 182.89,1579.56 182.89,1376.68 130.53,1376.68 "/>
   <polygon class="fil11" points="2218.23,2607.04 2172.41,2607.04 2172.41,2705.21 2322.94,2705.21 2322.94,2652.86 2218.23,2652.86 "/>
   <polygon class="fil11" points="2067.7,2796.83 2067.7,2803.38 2421.1,2803.38 2421.1,2646.31 2414.56,2646.31 2414.56,2600.5 2375.29,2600.5 2375.29,2757.57 2414.56,2757.57 2414.56,2796.83 "/>
   <polygon class="fil11" points="2322.94,1389.77 2316.39,1389.77 2316.39,1383.22 2277.12,1383.22 2277.12,1579.56 2322.94,1579.56 "/>
   <polygon class="fil11" points="2067.7,2607.04 2067.7,2757.57 2120.06,2757.57 2120.06,2554.69 2113.51,2554.69 2113.51,2613.59 2106.97,2613.59 2106.97,2607.04 "/>
   <path class="fil10" d="M281.05 460.45l-150.52 0 0 -45.81 150.52 0 0 45.81zm-248.69 -45.81l0 52.35 248.69 0 0 -6.54 6.55 0 0 -52.36 -248.69 0 0 6.55 -6.55 0z"/>
   <polygon class="fil10" points="2322.94,1684.27 2421.1,1684.27 2421.1,1631.91 2224.77,1631.91 2224.77,1330.87 2218.23,1330.87 2218.23,1638.46 2316.39,1638.46 2316.39,1651.55 2322.94,1651.55 "/>
   <polygon class="fil19" points="896.24,257.57 896.24,107.05 843.88,107.05 843.88,257.57 "/>
   <polygon class="fil11" points="1301.99,2757.57 1301.99,2705.21 1151.47,2705.21 1151.47,2751.02 1158.02,2751.02 1158.02,2757.57 "/>
   <polygon class="fil3" points="2067.7,2600.5 2067.7,2548.14 2120.06,2548.14 2120.06,2502.33 2015.35,2502.33 2015.35,2600.5 "/>
   <polygon class="fil8" points="438.12,408.09 438.12,309.93 385.77,309.93 385.77,362.28 339.95,362.28 339.95,408.09 "/>
   <polygon class="fil11" points="385.77,2757.57 385.77,2600.5 339.95,2600.5 339.95,2757.57 "/>
   <polygon class="fil20" points="32.36,2607.04 32.36,2751.02 38.91,2751.02 38.91,2757.57 78.17,2757.57 78.17,2607.04 84.72,2607.04 84.72,2600.5 45.45,2600.5 45.45,2607.04 "/>
   <polygon class="fil11" points="281.05,460.45 281.05,414.64 130.53,414.64 130.53,460.45 "/>
   <polygon class="fil11" points="2322.94,414.64 2172.41,414.64 2172.41,460.45 2322.94,460.45 "/>
   <polygon class="fil1" points="1301.99,205.21 1301.99,159.4 1158.02,159.4 1158.02,205.21 "/>
   <polygon class="fil11" points="2120.06,264.12 2120.06,107.05 2113.51,107.05 2113.51,152.86 2074.24,152.86 2074.24,107.05 2067.7,107.05 2067.7,264.12 "/>
   <polygon class="fil3" points="2067.7,316.47 2021.89,316.47 2021.89,408.09 2113.51,408.09 2113.51,362.28 2067.7,362.28 "/>
   <polygon class="fil14" points="32.36,257.57 32.36,362.28 84.72,362.28 84.72,159.4 78.17,159.4 78.17,257.57 "/>
   <polygon class="fil15" points="1354.35,2751.02 1354.35,2855.74 1406.71,2855.74 1406.71,2652.86 1400.16,2652.86 1400.16,2751.02 "/>
   <polygon class="fil10" points="2172.41,460.45 2172.41,466.99 2421.1,466.99 2421.1,414.64 2322.94,414.64 2322.94,460.45 "/>
   <polygon class="fil14" points="1053.3,309.93 1099.12,309.93 1099.12,211.76 1053.3,211.76 1053.3,61.24 1046.76,61.24 1046.76,296.84 1053.3,296.84 "/>
   <polygon class="fil10" points="130.53,1684.27 130.53,1638.46 235.24,1638.46 235.24,1631.91 32.36,1631.91 32.36,1684.27 "/>
   <polygon class="fil11" points="896.24,2705.21 896.24,2757.57 1000.95,2757.57 1000.95,2652.86 994.4,2652.86 994.4,2705.21 "/>
   <polygon class="fil17" points="235.24,159.4 235.24,152.86 32.36,152.86 32.36,257.57 78.17,257.57 78.17,159.4 "/>
   <polygon class="fil21" points="130.53,2397.62 130.53,2351.81 182.89,2351.81 182.89,2397.62 228.7,2397.62 228.7,2404.17 235.24,2404.17 235.24,2345.26 91.26,2345.26 91.26,2351.81 84.72,2351.81 84.72,2397.62 "/>
   <polygon class="fil22" points="1000.95,159.4 1000.95,107.05 896.24,107.05 896.24,159.4 "/>
   <polygon class="fil12" points="1557.23,159.4 1557.23,107.05 1459.06,107.05 1459.06,165.95 1465.61,165.95 1465.61,159.4 "/>
   <polygon class="fil22" points="1557.23,2705.21 1557.23,2652.86 1459.06,2652.86 1459.06,2705.21 "/>
   <polygon class="fil9" points="1557.23,205.21 1459.06,205.21 1459.06,257.57 1557.23,257.57 "/>
   <polygon class="fil9" points="896.24,211.76 896.24,257.57 1000.95,257.57 1000.95,159.4 994.4,159.4 994.4,211.76 "/>
   <polygon class="fil23" points="994.4,159.4 896.24,159.4 896.24,211.76 994.4,211.76 "/>
   <polygon class="fil12" points="994.4,2652.86 896.24,2652.86 896.24,2705.21 994.4,2705.21 "/>
   <polygon class="fil21" points="2270.58,2397.62 2270.58,2351.81 2322.94,2351.81 2322.94,2397.62 2368.75,2397.62 2368.75,2345.26 2224.77,2345.26 2224.77,2397.62 "/>
   <polygon class="fil1" points="1557.23,2757.57 1557.23,2705.21 1459.06,2705.21 1459.06,2757.57 "/>
   <polygon class="fil10" points="2100.42,362.28 2100.42,355.74 2120.06,355.74 2120.06,264.12 2067.7,264.12 2067.7,362.28 "/>
   <polygon class="fil11" points="235.24,159.4 235.24,257.57 281.05,257.57 281.05,165.95 287.6,165.95 287.6,107.05 281.05,107.05 281.05,159.4 "/>
   <polygon class="fil3" points="2172.41,512.81 2172.41,460.45 2165.87,460.45 2165.87,414.64 2120.06,414.64 2120.06,512.81 "/>
   <polygon class="fil11" points="1099.12,211.76 1099.12,107.05 1053.3,107.05 1053.3,211.76 "/>
   <polygon class="fil10" points="1000.95,2757.57 896.24,2757.57 896.24,2803.38 1000.95,2803.38 "/>
   <polygon class="fil11" points="1400.16,107.05 1354.35,107.05 1354.35,211.76 1400.16,211.76 "/>
   <polygon class="fil15" points="2421.1,257.57 2375.29,257.57 2375.29,362.28 2421.1,362.28 "/>
   <polygon class="fil15" points="353.04,362.28 385.77,362.28 385.77,257.57 339.95,257.57 339.95,355.74 353.04,355.74 "/>
   <polygon class="fil11" points="2218.23,257.57 2218.23,159.4 2172.41,159.4 2172.41,257.57 "/>
   <polygon class="fil11" points="385.77,257.57 385.77,159.4 339.95,159.4 339.95,257.57 "/>
   <polygon class="fil9" points="1557.23,2757.57 1459.06,2757.57 1459.06,2803.38 1557.23,2803.38 "/>
   <polygon class="fil11" points="235.24,565.16 235.24,519.35 137.07,519.35 137.07,565.16 "/>
   <polygon class="fil3" points="2120.06,2404.17 2120.06,2502.33 2165.87,2502.33 2165.87,2404.17 "/>
   <polygon class="fil3" points="333.41,512.81 333.41,414.64 287.6,414.64 287.6,512.81 "/>
   <polygon class="fil6" points="1459.06,165.95 1459.06,205.21 1557.23,205.21 1557.23,159.4 1465.61,159.4 1465.61,165.95 "/>
   <polygon class="fil11" points="2316.39,565.16 2316.39,558.62 2322.94,558.62 2322.94,519.35 2224.77,519.35 2224.77,565.16 "/>
   <polygon class="fil11" points="2414.56,257.57 2414.56,159.4 2375.29,159.4 2375.29,257.57 "/>
   <polygon class="fil21" points="137.07,565.16 137.07,519.35 235.24,519.35 235.24,512.81 84.72,512.81 84.72,565.16 "/>
   <polygon class="fil21" points="2316.39,565.16 2368.75,565.16 2368.75,512.81 2224.77,512.81 2224.77,519.35 2322.94,519.35 2322.94,558.62 2316.39,558.62 "/>
   <polygon class="fil21" points="137.07,2502.33 137.07,2495.79 84.72,2495.79 84.72,2449.98 32.36,2449.98 32.36,2502.33 "/>
   <polygon class="fil11" points="137.07,2495.79 137.07,2502.33 235.24,2502.33 235.24,2449.98 182.89,2449.98 182.89,2456.52 189.43,2456.52 189.43,2495.79 "/>
   <polygon class="fil24" points="2322.94,257.57 2322.94,205.21 2270.58,205.21 2270.58,257.57 "/>
   <polygon class="fil15" points="2270.58,2502.33 2270.58,2495.79 2218.23,2495.79 2218.23,2449.98 2172.41,2449.98 2172.41,2502.33 "/>
   <polygon class="fil21" points="2329.48,2502.33 2421.1,2502.33 2421.1,2449.98 2375.29,2449.98 2375.29,2495.79 2329.48,2495.79 "/>
   <polygon class="fil25" points="182.89,2449.98 130.53,2449.98 130.53,2495.79 189.43,2495.79 189.43,2456.52 182.89,2456.52 "/>
   <polygon class="fil21" points="235.24,2449.98 235.24,2502.33 281.05,2502.33 281.05,2443.43 274.51,2443.43 274.51,2449.98 "/>
   <polygon class="fil12" points="2113.51,2554.69 2067.7,2554.69 2067.7,2607.04 2106.97,2607.04 2106.97,2613.59 2113.51,2613.59 "/>
   <polygon class="fil22" points="2322.94,2397.62 2322.94,2351.81 2270.58,2351.81 2270.58,2397.62 "/>
   <polygon class="fil25" points="182.89,2397.62 182.89,2351.81 130.53,2351.81 130.53,2397.62 "/>
   <polygon class="fil11" points="2270.58,2495.79 2270.58,2449.98 2218.23,2449.98 2218.23,2495.79 "/>
   <polygon class="fil22" points="385.77,159.4 385.77,107.05 339.95,107.05 339.95,159.4 "/>
   <polygon class="fil16" points="385.77,2600.5 385.77,2554.69 339.95,2554.69 339.95,2600.5 "/>
   <polygon class="fil11" points="182.89,257.57 182.89,211.76 137.07,211.76 137.07,257.57 "/>
   <polygon class="fil11" points="130.53,2495.79 130.53,2449.98 84.72,2449.98 84.72,2495.79 "/>
   <polygon class="fil11" points="2336.03,2495.79 2375.29,2495.79 2375.29,2449.98 2322.94,2449.98 2322.94,2456.52 2336.03,2456.52 2336.03,2463.07 2329.48,2463.07 2329.48,2489.24 2336.03,2489.24 "/>
   <path class="fil26" d="M2277.12 2456.52l32.73 0 0 39.27 -32.73 0 0 -39.27zm52.36 45.81l0 -6.54 6.55 0 0 -6.55 -6.55 0 0 -26.17 6.55 0 0 -6.55 -13.09 0 0 -6.54 -52.36 0 0 52.35 58.9 0z"/>
   <polygon class="fil12" points="2113.51,107.05 2074.24,107.05 2074.24,152.86 2113.51,152.86 "/>
   <polygon class="fil27" points="438.12,2502.33 438.12,2495.79 339.95,2495.79 339.95,2397.62 333.41,2397.62 333.41,2502.33 "/>
   <polygon class="fil28" points="2277.12,2495.79 2309.85,2495.79 2309.85,2456.52 2277.12,2456.52 "/>
  </g>
 </g>
</svg>
