<?xml version="1.0" encoding="UTF-8"?>
<!DOCTYPE svg PUBLIC "-//W3C//DTD SVG 1.1//EN" "http://www.w3.org/Graphics/SVG/1.1/DTD/svg11.dtd">
<!-- Creator: CorelDRAW -->
<svg xmlns="http://www.w3.org/2000/svg" xml:space="preserve" width="10.39mm" height="15mm" version="1.1" style="shape-rendering:geometricPrecision; text-rendering:geometricPrecision; image-rendering:optimizeQuality; fill-rule:evenodd; clip-rule:evenodd"
viewBox="0 0 1039 1500"
 xmlns:xlink="http://www.w3.org/1999/xlink"
 xmlns:xodm="http://www.corel.com/coreldraw/odm/2003">
 <defs>
  <style type="text/css">
   <![CDATA[
    .fil3 {fill:#54828B}
    .fil0 {fill:#6694A2}
    .fil2 {fill:#79A6AF}
    .fil6 {fill:#888D95}
    .fil1 {fill:#A1CAD9}
    .fil5 {fill:#D2F2FD}
    .fil4 {fill:#F5FAFF}
   ]]>
  </style>
 </defs>
 <g id="Camada_x0020_1">
  <metadata id="CorelCorpID_0Corel-Layer"/>
  <g id="_2613526488144">
   <path class="fil0" d="M166.91 152.87l-2.22 30.64 -34.53 5.54 -2.58 -36.97 39.33 0.79zm741.52 -7.28c-2.03,11.76 -3.66,35.04 -4.06,35.63l-31.89 0.98 1.3 -31.18 34.65 -5.43zm-157.78 36.34l80.52 1.28 1.36 39.9 40.2 -0.06 0.23 82.06 38.12 -1.21c-13.03,48.38 -6.77,540.89 -6.78,610.06 -0.01,110.27 -0.39,220.23 -1.58,330.08 3.94,-30.28 -18.53,-13.49 -30.81,0.51l-1.43 66.82 -39.88 2.64 -0.42 39.39 -621.17 2.55c-10.2,-16.5 -6.15,-14.74 -5.96,-39.73l-39.08 -0.85 -1.52 -42.24 -30.74 1.88c-16.61,-39.27 -3.56,-878.38 -1.92,-968.76l33.64 3.17 0.1 -84.17 41.82 0.55 1.14 -41.07 78.19 -0.01c2.92,-17.1 5.02,-18.77 -1.33,-33.73l471.51 -1.8c-10.66,19.24 -6.91,8.78 -4.21,32.74zm204.36 -49.21l-20.17 0.53c-6.5,-0.03 -6.5,-0.42 -12.69,-0.31l0.04 -34.66c30.14,7.4 27.24,1.21 32.82,34.44zm-834.79 -29.68l-4.38 32.15 -34.43 0c5.1,-34.69 3.56,-30.77 38.81,-32.15zm0.63 1294.48l11.02 -0.31 -1.21 -44.3 30.04 6.48 0.02 37.88 125.64 0.1 -1.02 -33.32c55.58,-9.82 159.04,-3.32 220.24,-3.32 75.57,0 168.53,-2.64 244.1,-3.11l-2.26 37.05 128.69 -0.4 -5.71 -35.36 32.41 -5.15 4.22 41.11c9.25,25.1 6.36,56.62 5.77,84.53l80.59 -2.99 -0.6 -81.98 -37.52 1.54 -10.75 0.02c8.92,20.3 6.3,9.33 5.39,34l-29.32 5.92 -3.72 -41.01c-14,-43.7 -5.12,-409.82 -5.12,-486.87 0,-160.29 7.45,-607.92 1.49,-766.78l80.91 0.56 0.13 -81.21 -83.46 1.48 2.08 39.86 0.73 39.68 -791.03 2.6 0.56 -38.82 -2.94 -2.36 5.5 -43.07 -77.85 2.38c-4.5,29.29 -4.9,65.63 0.38,80.84l74.61 0.95 -2.01 1253.38z"/>
   <path class="fil1" d="M43.9 1034.11c-0.06,-58.67 -8.59,-487.52 6.65,-529.34l23.74 -0.02c4.57,6.7 3.88,4.31 7.06,16.07l0.46 510.28 -0.58 41.05 -33.84 -0.2 -3.49 -37.84zm-35.87 -929.35l-3.37 -38.8 36.46 3.99 -1.49 35.65 0.43 38.94 -30.91 -0.67 -1.12 -39.11zm-3.37 -38.8l-3.17 117.44 82.7 1.08 -0.91 33.74c-1.25,0.86 -3.83,-0.3 -4.83,1.79l-35.91 6.48 -1.59 42.75 9.61 -42.57 33.2 0.48 -1.02 79.95 -40.31 0.09 0.03 38.61 -33.45 4.03 0 -83.02c-10.26,12.15 -4.83,-3.13 -7.53,22.46l0.2 96.62 82.69 1.35 -1.52 32.64 -20.02 9.07c-6,1.74 -10.01,0.57 -18.41,3.11l-3.81 677.85 40.18 5.66 -1.29 36.9 0.99 42.33 -40.88 -2.64 1.92 77.42 -34.11 0.13 -1.17 -73.14 -1.68 -43.17c-12.92,28.12 -4.52,85.5 -4.34,120.49l42.14 0.94 -1.32 40.51 38.63 2.82 -0.4 39.87 2.7 40.34 38.87 -0.85 2.01 -1253.38 -74.61 -0.95c-5.28,-15.21 -4.88,-51.55 -0.38,-80.84l0.69 -39.91c-9.9,15.96 -6.16,17.59 -5.76,41.27l-38.14 2.25z"/>
   <path class="fil1" d="M916.87 1394.9l27.65 1.09 10.75 -0.02 -3.97 -37.63 35.01 -4.95 -34.81 -6.43 1.15 -29.71 42.03 -3.01 0.42 -39.87 38.58 -7.2 -40.34 -0.42 1.71 -76.93 -41.08 0.24 -0.46 -41.16 0.4 -35.12 39.79 -3.16 0.5 -12.78 -0.21 -30.23 -39.86 -1.43c-1.44,-61.8 -0.48,-398.13 -0.53,-458.95 -0.14,-155.52 -9.78,-137.83 41.85,-140.18l0.67 -31.83c-1.5,-1.26 -4.07,-4.3 -5.08,-2.82 -0.99,1.45 -3.66,-2.05 -5.03,-2.62 -38.2,-15.95 -9.13,5.49 -32.81,-12.35l-0.38 -33.81 82.06 1.63 1.58 -40.16 -39.92 -0.15 -1.72 -39.81 -39.97 -2.89 -1.06 -75.1 33.64 -2.67c0.08,30.16 -0.52,29.65 9,42.04l-2.17 -40.77 -41.04 -9.98 -0.02 -23.73c23.68,-19.47 44.41,-4.01 73.3,-13.29l8.59 -4.3 -40.97 -0.19 0.03 -32.44 -80.91 -0.56c5.96,158.86 -1.49,606.49 -1.49,766.78 0,77.05 -8.88,443.17 5.12,486.87z"/>
   <path class="fil1" d="M993.39 1476.41l-80.59 2.99c0.59,-27.91 3.48,-59.43 -5.77,-84.53l-30.92 -0.6 -128.69 0.4 -461.06 2.7 -125.64 -0.1 -28.85 -0.06 -11.02 0.31 0.71 41.65 -0.48 38.5 -76.19 0.16 0.8 -79.68 -7.26 0.28 0.21 77.93 -31.29 -1.07 -1.78 -75.79 -0.09 -40.62 1.83 -1.78c-13.02,13.42 -7.86,7.24 -7.29,57.52 0.24,20.65 -0.3,41.31 -0.2,63.21l41.33 0.04 0.15 40.46 121.44 0.13 0.55 -80.21 78.76 1.92 2.17 38.03 80.36 -1.18 0.01 -39.12 383.75 -3.06 0.72 40.48 80.92 0.92 0.42 -40.78 79.2 2.89 3.31 78.06 121.2 -3.38 -0.72 -36.62z"/>
   <path class="fil1" d="M793.49 58.56l-3.61 41.89c-62.63,4.83 -514.58,11.37 -544.51,-0.83l-1.57 -38.86 -40.07 1.13 -0.89 39.9 -37.35 0.46 -42.33 3.15 -0.56 38.82 791.03 -2.6 -0.73 -39.68 -32.38 -0.92 -1.28 -36.99 -1.59 -44.34c-7.05,16.27 -3.9,15.71 -4.02,35.64 -0.13,24.61 1.19,31.25 -10.76,46.29l-23.72 -0.31c-1.02,-1.28 -1.74,-5.99 -2.1,-5.13l-9.76 -36.26 -33.8 -1.36z"/>
   <path class="fil1" d="M831 1266.85l-0.69 46.11 -39.05 0.64 -550.21 3.11 -37.19 -1.54 -1.46 -43.24 1.75 -36.12 -43.03 1.19 1.33 36.13 1.52 42.24 39.08 0.85c-0.19,24.99 -4.24,23.23 5.96,39.73l621.17 -2.55 0.42 -39.39 39.88 -2.64 1.43 -66.82 0.21 -49.18 -42.68 -3.22 1.56 74.7z"/>
   <polygon class="fil2" points="161.12,1237 204.15,1235.81 205.49,347.77 164.18,344.86 "/>
   <path class="fil3" d="M162.45 1273.13l-1.33 -36.13 3.06 -892.14 -0.75 -35.44 -33.64 -3.17c-1.64,90.38 -14.69,929.49 1.92,968.76l30.74 -1.88z"/>
   <polygon class="fil2" points="829.44,1192.15 872.12,1195.37 873.21,342.15 831.18,346.12 "/>
   <path class="fil3" d="M873.21 342.15l-1.09 853.22 -0.21 49.18c12.28,-14 34.75,-30.79 30.81,-0.51 1.19,-109.85 1.57,-219.81 1.58,-330.08 0.01,-69.17 -6.25,-561.68 6.78,-610.06l-38.12 1.21 0.25 37.04z"/>
   <path class="fil3" d="M286.36 1397.37l461.06 -2.7 2.26 -37.05c-75.57,0.47 -168.53,3.11 -244.1,3.11 -61.2,0 -164.66,-6.5 -220.24,3.32l1.02 33.32z"/>
   <polygon class="fil2" points="328.01,226.3 709.84,223.82 714.56,182.69 323.8,184.93 "/>
   <path class="fil3" d="M284.68 184.72l39.12 0.21 390.76 -2.24 36.09 -0.76c-2.7,-23.96 -6.45,-13.5 4.21,-32.74l-471.51 1.8c6.35,14.96 4.25,16.63 1.33,33.73z"/>
   <path class="fil4" d="M993.99 1067.61l1.46 -600.56c-51.63,2.35 -41.99,-15.34 -41.85,140.18 0.05,60.82 -0.91,397.15 0.53,458.95l39.86 1.43z"/>
   <path class="fil5" d="M243.8 60.76l1.57 38.86c29.93,12.2 481.88,5.66 544.51,0.83l3.61 -41.89 -0.97 -3.92c-19.99,11.22 -6.63,5.6 -36.34,6.28 -14.18,0.33 -24.07,0.31 -40.08,2.09l-1.58 -44.14 -5.92 40.88 -36.77 -0.9 -1.19 39.1c-51.53,2.24 -265.97,10.65 -303.49,-0.93l-3.91 -35.32 -33.24 0.18c-3.06,-9.88 -3.01,-16.72 -4.39,-21.38l-5.45 -14.25c-0.46,-1.1 -1.23,-3.1 -2.23,-4.4l-0.42 41.66 -73.71 -2.75z"/>
   <path class="fil4" d="M671.83 58.85l-308.59 2.85 3.91 35.32c37.52,11.58 251.96,3.17 303.49,0.93l1.19 -39.1z"/>
   <path class="fil4" d="M43.9 1034.11l37.91 -3.01 -0.46 -510.28c-3.18,-11.76 -2.49,-9.37 -7.06,-16.07l-23.74 0.02c-15.24,41.82 -6.71,470.67 -6.65,529.34z"/>
   <path class="fil5" d="M1036.46 345.09l-0.34 -81.94 -39.69 3.36c-9.52,-12.39 -8.92,-11.88 -9,-42.04l-33.64 2.67 1.06 75.1 39.97 2.89 1.72 39.81 39.92 0.15z"/>
   <polygon class="fil5" points="40.95,269.24 9.01,266.81 9.01,349.83 42.46,345.8 42.43,307.19 82.74,307.1 83.76,227.15 50.56,226.67 "/>
   <polygon class="fil5" points="955.27,1395.97 992.79,1394.43 993.39,1476.41 1034.25,1475.01 1034.54,1394.27 994.91,1395.79 993.57,1358.65 1034.58,1356.79 986.31,1353.39 951.3,1358.34 "/>
   <polygon class="fil1" points="163.43,309.42 164.18,344.86 205.49,347.77 205.52,268.21 205.35,225.8 163.53,225.25 "/>
   <polygon class="fil1" points="830.83,268.65 831.18,346.12 873.21,342.15 872.96,305.11 872.73,223.05 832.53,223.11 "/>
   <polygon class="fil1" points="709.84,223.82 785.82,224.66 832.53,223.11 831.17,183.21 750.65,181.93 714.56,182.69 "/>
   <polygon class="fil1" points="205.35,225.8 251.17,225.99 328.01,226.3 323.8,184.93 284.68,184.72 206.49,184.73 "/>
   <polygon class="fil0" points="121.56,1439.17 81.84,1435.09 81.98,1398.37 45.69,1398.15 44.89,1477.83 121.08,1477.67 "/>
   <path class="fil5" d="M910.82 62.08l83.46 -1.48 -1.31 -41.46 -77.66 -0.68 -2.05 34.49c-0.27,1.41 -0.89,3.56 -1.13,4.66 -0.24,1.07 -0.9,2.97 -1.31,4.47z"/>
   <polygon class="fil5" points="994.15,141.81 994.12,174.25 1035.09,174.44 1036.32,102.59 1003.04,104.71 1000.71,61.41 994.28,60.6 "/>
   <path class="fil4" d="M792.52 54.64l-0.95 -35.67 -77.05 -0.1 1.58 44.14c16.01,-1.78 25.9,-1.76 40.08,-2.09 29.71,-0.68 16.35,4.94 36.34,-6.28z"/>
   <polygon class="fil5" points="47.87,62.35 125.72,59.97 124.83,21.27 48.56,22.44 "/>
   <polygon class="fil5" points="1033.68,1267.17 1034.93,1194.13 995.05,1189.82 993.34,1266.75 "/>
   <polygon class="fil4" points="243.8,60.76 317.51,63.51 317.93,21.85 244.23,20.76 "/>
   <polygon class="fil5" points="39.61,1192.16 6.25,1196.57 7.42,1269.71 41.53,1269.58 "/>
   <polygon class="fil5" points="38.43,1398.43 5.57,1399.5 7.35,1475.29 38.64,1476.36 "/>
   <polygon class="fil0" points="830.83,268.65 832.53,223.11 785.82,224.66 791.38,263.96 "/>
   <polygon class="fil5" points="120.22,103.04 123.16,105.4 165.49,102.25 164.86,63.61 125.72,59.97 "/>
   <polygon class="fil0" points="205.52,268.21 245.59,265.49 251.17,225.99 205.35,225.8 "/>
   <polygon class="fil0" points="791.26,1313.6 830.31,1312.96 831,1266.85 788.96,1275.81 "/>
   <polygon class="fil4" points="995.05,1189.82 1034.93,1194.13 1034.78,1150.02 994.24,1149.85 "/>
   <path class="fil5" d="M38.43 1398.43l7.26 -0.28 36.29 0.22 -2.7 -40.34 -71.97 -0.93 -1.83 1.78 38.82 1.75c-2.52,15.71 -4.44,27.22 -5.87,37.8z"/>
   <polygon class="fil5" points="995.05,1189.82 994.24,1149.85 953.51,1148.9 953.97,1190.06 "/>
   <polygon class="fil0" points="241.05,1316.71 243.34,1276.39 202.4,1271.93 203.86,1315.17 "/>
   <polygon class="fil5" points="39.61,1192.16 80.49,1194.8 79.5,1152.47 42.18,1152.12 "/>
   <polygon class="fil4" points="125.72,59.97 164.86,63.61 164.93,21.32 124.83,21.27 "/>
   <polygon class="fil3" points="121.56,1439.17 120.85,1397.52 81.98,1398.37 81.84,1435.09 "/>
   <polygon class="fil4" points="1034.54,1394.27 1034.58,1356.79 993.57,1358.65 994.91,1395.79 "/>
   <polygon class="fil4" points="6.25,1196.57 39.61,1192.16 42.18,1152.12 4.57,1153.4 "/>
   <path class="fil4" d="M879.24 64.03c21.98,-9.57 10.5,-6.45 31.58,-1.95 0.41,-1.5 1.07,-3.4 1.31,-4.47 0.24,-1.1 0.86,-3.25 1.13,-4.66l2.05 -34.49 -37.66 1.23 1.59 44.34z"/>
   <polygon class="fil4" points="1036.32,102.59 1036.19,61.49 1000.71,61.41 1003.04,104.71 "/>
   <polygon class="fil5" points="81.81,1031.1 43.9,1034.11 47.39,1071.95 81.23,1072.15 "/>
   <path class="fil4" d="M5.57 1399.5l32.86 -1.07c1.43,-10.58 3.35,-22.09 5.87,-37.8l-38.82 -1.75 0.09 40.62z"/>
   <path class="fil5" d="M912.9 101.94l-2.08 -39.86c-21.08,-4.5 -9.6,-7.62 -31.58,1.95l1.28 36.99 32.38 0.92z"/>
   <polygon class="fil4" points="8.03,104.76 39.63,105.6 41.12,69.95 4.66,65.96 "/>
   <polygon class="fil3" points="127.58,152.08 130.16,189.05 164.69,183.51 166.91,152.87 "/>
   <polygon class="fil3" points="876.11,1394.27 907.03,1394.87 902.81,1353.76 870.4,1358.91 "/>
   <polygon class="fil5" points="39.63,105.6 8.03,104.76 9.15,143.87 40.06,144.54 "/>
   <polygon class="fil3" points="131.87,1397.21 160.72,1397.27 160.7,1359.39 130.66,1352.91 "/>
   <path class="fil3" d="M944.52 1395.99l-27.65 -1.09 3.72 41.01 29.32 -5.92c0.91,-24.67 3.53,-13.7 -5.39,-34z"/>
   <path class="fil3" d="M873.78 151.02l-1.3 31.18 31.89 -0.98c0.4,-0.59 2.03,-23.87 4.06,-35.63l-34.65 5.43z"/>
   <path class="fil3" d="M120.22 103.04c-35.25,1.38 -33.71,-2.54 -38.81,32.15l34.43 0 4.38 -32.15z"/>
   <path class="fil3" d="M922.15 132.94c6.19,-0.11 6.19,0.28 12.69,0.31l20.17 -0.53c-5.58,-33.23 -2.68,-27.04 -32.82,-34.44l-0.04 34.66z"/>
   <polygon class="fil6" points="994.28,60.6 1000.71,61.41 1036.19,61.49 993.4,59.45 992.97,19.14 "/>
  </g>
 </g>
</svg>
