<?xml version="1.0" encoding="UTF-8"?>
<!DOCTYPE svg PUBLIC "-//W3C//DTD SVG 1.1//EN" "http://www.w3.org/Graphics/SVG/1.1/DTD/svg11.dtd">
<!-- Creator: CorelDRAW -->
<svg xmlns="http://www.w3.org/2000/svg" xml:space="preserve" width="62.39mm" height="63.66mm" version="1.1" style="shape-rendering:geometricPrecision; text-rendering:geometricPrecision; image-rendering:optimizeQuality; fill-rule:evenodd; clip-rule:evenodd"
viewBox="0 0 6239 6366"
 xmlns:xlink="http://www.w3.org/1999/xlink"
 xmlns:xodm="http://www.corel.com/coreldraw/odm/2003">
 <defs>
  <style type="text/css">
   <![CDATA[
    .fil0 {fill:#018983}
    .fil2 {fill:#28CCCC}
    .fil1 {fill:#B0ECEC}
    .fil3 {fill:#FF7770}
   ]]>
  </style>
 </defs>
 <g id="Camada_x0020_1">
  <metadata id="CorelCorpID_0Corel-Layer"/>
  <g id="_2577430001232">
   <g>
    <path class="fil0" d="M-2.74 157.32l0 6227.31 5163.87 0c0,0 78.85,-1683.79 -1700.89,-2635.25 -1005.1,-537.34 -1338.91,-336.62 -2233.91,-1356.54 -742.07,-845.65 -1032.82,-1764.15 -1229.07,-2235.52z"/>
    <path class="fil1" d="M-2.74 448.34l0 5936.29 4860.99 0c0,0 381.72,-1683.8 -1398.01,-2635.25 -1005.09,-537.33 -1338.91,-336.62 -2233.91,-1356.54 -742.07,-845.65 -1032.82,-1473.13 -1229.07,-1944.5z"/>
    <path class="fil2" d="M1.91 914.46l-4.65 5470.17 4552.01 0c0,0 582.63,-1467.67 -1197.09,-2419.12 -1005.1,-537.33 -1354.35,-305.75 -2249.35,-1325.66 -742.07,-845.65 -904.66,-1254.02 -1100.92,-1725.39z"/>
   </g>
   <g>
    <path class="fil3" d="M5939.27 4826.25c-96.41,90.51 -22.49,30.55 -113.28,55.03 -77.22,20.81 -17.71,37.18 -110.3,18.15 -139.58,-188.62 216.63,-265.05 223.58,-73.18z"/>
    <path class="fil3" d="M2554.32 2445.47l87.54 90.9c-38.43,87.76 -23.61,28.12 -83.92,88.37 -48.3,48.24 -52.31,101.9 -118.33,39.89 -105.68,-99.27 35.25,-192.1 114.71,-219.16z"/>
    <path class="fil3" d="M3522.86 3558.05l54.5 -26.92 81.39 50.12c-7.66,114.48 -14.04,201.99 -85.56,203.6 -124.86,-33.89 -126.41,-140.14 -50.33,-226.8z"/>
    <path class="fil3" d="M4586.55 3811.3c51.08,-218.3 282.63,-168.32 208.62,-39.28 -2.96,5.16 -83.34,115.66 -93.35,128.76 -72.63,-21.41 -70.7,-14.96 -115.27,-89.48z"/>
    <path class="fil3" d="M2275.88 1777.01l63.59 2.12c94.47,110.81 8.73,170.15 -118.84,214.77 -109.61,-84.26 -2.12,-42.41 -70.79,-95.83l-22.74 -8.61c-2.41,-1.53 -9.68,-4.12 -11.83,-5.6 -42.22,-29.19 -13,1.82 -23.53,-33.42 95.05,-6.99 28.85,53.32 184.14,-73.43z"/>
    <path class="fil3" d="M2284.03 1400.11c32.13,-28.88 43.28,-19.41 8.25,-32.81 56.89,-50.78 101.88,-52.15 147.16,-60.43 220.93,181.78 -107.39,205.19 -129.11,191.42 -67.41,-90.23 -47.22,-27.81 -26.3,-98.18z"/>
    <path class="fil3" d="M2854.69 3214.95l99.68 -140.35c20.51,3.57 92.44,2.72 110.22,54.52 19.62,57.16 -9.46,56.62 -45.51,128.36 -62.66,124.73 -120.86,66.08 -164.39,-42.53z"/>
    <path class="fil3" d="M5220.36 4246.58c23.96,-25.03 24.51,-12.5 2.94,-37.43l118.85 -98.13 79.04 7.7 56.34 87.18c-31.45,42.09 -141.35,108.28 -187.21,128.09l-69.96 -87.41z"/>
    <path class="fil3" d="M5997.03 5486.17l70.65 -62.36c69.23,-32.07 16.6,-39.38 105.06,-2.49l57.62 56.31 6.21 90.37c-46.13,14.27 -174.22,14.76 -205.74,14.37 -54.24,-69.08 -43.02,-33.22 -33.8,-96.2z"/>
    <path class="fil3" d="M1765.33 838.65l101.79 -108.77 63.05 -3.6 93.18 82.99c-37.13,49.57 -132.19,122.05 -181.55,134.69 -54.54,-37.94 -63.93,-62.35 -76.47,-105.31z"/>
    <path class="fil3" d="M2749.01 2032.2l61.7 52.9c65.14,132.89 -210.79,91.32 -210.86,91.27 -68.02,-54.83 8.56,-220.27 149.16,-144.17z"/>
    <path class="fil3" d="M416.26 250.38c1.01,-5.4 6.29,-17.62 3.29,-16.13 -3.06,1.51 3,-12.89 4.12,-16.21 13.3,-39.47 1.36,-7.14 19.06,-49.43l65.17 -75.47c61.1,-28.55 46.33,-42.77 120.91,30.42 -5.56,51.64 -65.31,166.85 -101.3,203.43l-111.25 -76.61z"/>
    <path class="fil3" d="M699.09 585.62c11.16,-61.73 76.88,-114.75 127.58,-101.95 69.62,17.56 39.56,81.05 36.32,127.01 -18.37,260.95 -175.16,37.21 -163.9,-25.06z"/>
    <path class="fil3" d="M1324.22 955.85c-0.72,-94.42 34.26,-275.64 182.78,-141.04l-46.67 154.09c-40.64,88.11 -84.48,45.21 -136.11,-13.05z"/>
    <path class="fil3" d="M1200.74 544.7l-72.54 -98.76 16.07 -39.91 120.4 -90.19c42.44,15.83 99.52,26.08 88.85,82.32 -1.82,9.6 -96.02,139.22 -112.25,160.87l-40.53 -14.33z"/>
    <path class="fil3" d="M4004.45 3641.47c-281.9,-156.67 221.54,-351.9 109.18,-130.02 -16.13,31.87 -75.88,108.86 -109.18,130.02z"/>
    <path class="fil3" d="M4186.6 4035.83l-27.98 -76.03c17.92,-69.49 41.17,-137.81 147.93,-118.68 57.79,92.84 29.39,310.78 -119.95,194.71z"/>
    <path class="fil3" d="M5228.53 4770.28c18.15,-54.81 10.79,-30.9 -0.33,-66.36l24.81 -14.44 73.95 -80.87 8.73 -11.29c26.34,25.07 13.59,25.75 38.3,-0.06 27.12,10.58 29.94,-4.52 53.77,31.04 49.5,73.93 24.05,26.63 -3.27,77.23 -63.68,117.95 -123.93,111.05 -127.12,112.28l-68.84 -47.53z"/>
    <path class="fil3" d="M3324.08 3190.32l139.96 -114.73c146.73,58.04 93.59,88.03 3.62,174.04 -99.71,95.32 -128.13,29.85 -143.58,-59.31z"/>
    <path class="fil3" d="M5580.83 5325.23l4.32 -39.61c44.57,-57.31 90.6,-85.67 138.08,-110.44l82.25 73.28c-13.68,65.22 -85.33,107.53 -160.86,156.65l-63.79 -79.88z"/>
    <path class="fil3" d="M1824.16 1348.97l103.44 -145.37c71.37,4.99 58.18,-11.79 105.11,61.63l-24.52 51.24c-65.87,106.52 -56.37,94.14 -109.81,119.36 -73.02,-33.04 -47.6,-16.04 -74.22,-86.86z"/>
    <path class="fil3" d="M5768.26 5919.43l58.17 -54.44c55.36,-32.92 2.98,-17.16 73.05,-33.36l85.97 50.78 6 64.29c-118.9,75.58 -288.49,98.85 -223.19,-27.27z"/>
    <path class="fil3" d="M4782.7 4296.14c1.79,-71.92 37.74,-278.36 181.7,-138.9 -7.06,32.87 -7.25,23.53 -23.85,61.38 -38.73,88.26 -57.41,183.56 -157.85,77.52z"/>
    <path class="fil3" d="M2848.27 2736.27l27.38 -53.56 112.78 -64.75 107.27 68.85c-37.45,80.85 -25.42,48.46 -83.66,76.35 -26.99,12.93 -69.43,35.33 -110.8,46.28l-52.97 -73.17z"/>
    <polygon class="fil3" points="1264.67,315.84 1144.27,406.03 1169.52,273.35 1209.53,309.25 1236.74,276.38 "/>
    <path class="fil3" d="M2828.63 3172.66c-76.81,-28.03 -61.98,-9.31 -73.69,-81.82 1.14,-0.2 31.8,-37.08 72.23,14.61 49.99,63.92 13.5,19.42 1.46,67.21z"/>
    <path class="fil3" d="M5826.43 5864.99l-58.17 54.44 -21.99 -24.55 -25.55 -59.81c80.82,7.98 62.42,59.8 63.93,6.68l36.4 -42.95c4.39,31.11 12.27,37.12 5.38,66.19z"/>
    <path class="fil3" d="M2377.1 1275.84c-25.59,-6.89 4.18,51 -47.04,-19.54 -61.19,-84.29 -17.26,-6.21 -10.53,-65.85 41.11,8.74 -7.75,-64.85 53.11,20.13 23.24,32.44 27.58,30.04 4.46,65.26z"/>
    <path class="fil3" d="M4035.69 3947.43c64.39,-31.32 20.99,-34.39 103.81,14.35 -55.82,43.71 -15.31,53.26 -80.94,32.11 -69.97,-22.54 -18.42,-15.8 -22.87,-46.46z"/>
    <path class="fil3" d="M5290.9 4104.79c-62.17,-24.06 -72.33,-23.43 -57.77,-95.07 2.17,0.47 20.73,-36 56.84,29.03 15.24,27.43 19.63,40.88 0.93,66.04z"/>
    <path class="fil3" d="M2319.03 1300.29c-28.68,6.96 -13.47,39.24 -69.65,0.09 -61.41,-42.79 -23.54,-26.75 -10.52,-65.32 37.58,6.8 61.4,4.16 80.17,65.23z"/>
    <path class="fil3" d="M4607.51 3683.35c-4.63,0.34 -17.89,28.12 -63.07,-6.81 -57.33,-44.31 -24.63,-19.53 -10.29,-64.41 69.84,8.46 58.75,0.13 73.36,71.22z"/>
    <path class="fil3" d="M415.23 124.52c-142.35,32.21 -83.62,-48.98 -83.9,-50.03 121.61,-18.31 79.6,34.38 83.9,50.03z"/>
    <path class="fil3" d="M3401.63 3601.37c57.83,14.86 34.64,50.76 34.68,50.86 -54.3,-0.65 -6.36,52 -108.67,-29.66 72.99,-38.76 -6.28,-41.82 73.99,-21.2z"/>
    <path class="fil3" d="M2746.53 1960.29l-63.43 12.61c-26.62,-85.47 -54.33,-33.35 27.85,-95.95 21.23,30.77 9.61,8.01 22.06,39.05 1.31,3.25 3.96,11 5.18,14.3 1.23,3.35 3.56,11.88 4.52,14.76 0.99,2.93 2.44,10.18 3.82,15.23z"/>
    <path class="fil3" d="M286.73 190.47c67.16,-51.17 73.88,-76.8 106.31,9.17 -80.01,41.96 -36.51,34.96 -106.31,-9.17z"/>
    <path class="fil3" d="M6129.87 5377.83c-57.17,-62.26 -61.67,-55.92 -3.44,-112.77 45.94,61.96 49.51,47.54 3.44,112.77z"/>
    <path class="fil3" d="M2827.9 3009.29c20.81,4.6 2.86,-55.76 54.65,30.58 29.82,49.74 4.34,14.23 -3.07,49.06 -103.87,-21.57 -62.12,-32.93 -51.58,-79.64z"/>
    <path class="fil3" d="M1791.53 718.1l-52.8 -51.79 56.38 -35.09 45.66 66.94c-69.33,72.69 -4.11,10.37 -49.24,19.94z"/>
    <path class="fil3" d="M2643.15 1984.66c-15.36,-3.31 -7.06,54.81 -51.16,-19.11 -35.74,-59.91 -17.88,-12.94 2.18,-71.85 30.45,22.26 74.81,51.61 48.98,90.96z"/>
    <path class="fil3" d="M1074.15 270.83c83.44,3.13 36.16,-8.52 93.56,53.67 -81.54,31.94 -105.01,12.58 -93.56,-53.67z"/>
    <path class="fil3" d="M1008.01 389.42c66.91,-50.99 41.39,-54.55 108.31,9.4 -71.66,38.54 -27.44,46.77 -108.31,-9.4z"/>
    <path class="fil3" d="M1214.44 859.28c70.86,-16.61 3.32,-34.39 90.25,20.62 -45.44,32.01 3.98,39.26 -53.61,28.85 -96,-17.37 -35.53,-45.88 -36.64,-49.47z"/>
    <path class="fil3" d="M6053.76 5398.93c-5.59,-4.66 -29.48,-24.91 -32.47,-29.04 -50.88,-70.32 -14.63,-18.06 -27.09,-48.35 60.98,-64.59 81.62,3.11 59.56,77.39z"/>
    <path class="fil3" d="M2423.33 2452.65c-40.08,35.55 21.08,24.17 -46.92,18.16l-24.28 -68.33c43.18,-20.51 -5.73,-34.37 63.03,-3.03l8.17 53.2z"/>
    <path class="fil3" d="M5217.49 4159.94c-45.37,-19.6 0.52,31.75 -43.12,-24.81 -28.96,-37.52 -15.05,-22.38 -23.01,-52.3 137.87,-4.79 59.98,51.57 66.13,77.11z"/>
    <path class="fil3" d="M5260.15 4620.14c-85.79,-89.35 -54.46,-38.86 -26.14,-105.9 55.73,42.94 56.81,36.67 26.14,105.9z"/>
    <path class="fil3" d="M1798.38 1309.56c-79.71,-32.1 -46.4,-6.56 -57.62,-67.58 6.06,-1.51 27.16,-35.86 57.71,2.02 58.28,72.25 -8.26,9.84 -0.09,65.56z"/>
    <path class="fil3" d="M4135.65 3897.77c-51.82,7.83 22.51,45.03 -59.71,-6.04 -44,-27.33 -15.21,-28.25 -18.58,-38.63 39.77,-15.16 1.17,-35.6 57.49,-0.58 64.32,39.98 15.73,27.96 20.8,45.25z"/>
    <path class="fil3" d="M3332.17 3128.66c-44.79,8.73 11.92,45.12 -59.99,-6.33 -47.63,-34.09 -8.27,-2.67 -11.58,-39.73 115.16,-30.01 71.11,44.58 71.57,46.06z"/>
    <path class="fil3" d="M1730.49 718.12l44.96 41.83c-67.34,31.97 -43.66,34.69 -99.55,-13.98 58.44,-88.58 14.61,-23.71 54.59,-27.85z"/>
    <path class="fil3" d="M4666.59 4224.11c72.63,-67.53 12,-62.92 101.41,-3.61 -66.26,43.53 -36.35,51.01 -101.41,3.61z"/>
    <path class="fil3" d="M4466.98 3734.05c70.86,-53.02 39.95,-55.38 109.12,10.42 -60.91,26.42 -47.7,28.9 -109.12,-10.42z"/>
    <path class="fil3" d="M1309.1 832.3c-16.48,-5.25 -37.05,21.15 -64.69,-65.44 30.63,-6.73 13.77,-47.14 59.13,5.44 17.87,20.72 22.56,36.31 5.56,60z"/>
    <path class="fil3" d="M691.12 628.58c-84.17,51.58 -39.74,83.19 -99.36,-11.43 52.17,-27.56 42.68,-25.82 99.36,11.43z"/>
    <path class="fil3" d="M1200.74 544.7c-5.68,-1.25 -10.02,-8.21 -16.69,-5.12 -35.91,16.65 -6.3,-2.83 -32.27,-13.51 -46.54,-19.13 -16.23,-17.43 -63.96,-22.89l29.39 -44.08 10.99 -13.16 72.54 98.76z"/>
    <path class="fil3" d="M4790.64 4154.9c-57.45,9.61 -83.6,29.76 -68.23,-58.79 16.41,3.8 56.68,-25.89 68.23,58.79z"/>
    <path class="fil3" d="M3403.54 3494.67l59.56 58.91c-8.41,33.86 52.07,-4.28 -19.87,37.84l-63.69 -53.92 24 -42.83z"/>
    <path class="fil3" d="M5830.56 5792.16c29.14,-81.65 40.68,-58.38 59.98,-63.22 18.79,53.11 47.8,91.91 -59.98,63.22z"/>
    <path class="fil3" d="M2480.6 2438.71l-30.63 -35.73c-11.82,-54.06 -44.45,19.95 4.12,-63.47l57.6 31.29 -31.09 67.91z"/>
    <path class="fil3" d="M4176.94 4054.19l-53.95 -35.93c-14.4,-33.28 -87.61,15.87 35.63,-58.46l27.98 76.03 -9.66 18.36z"/>
    <path class="fil3" d="M5985.45 5882.41l-85.97 -50.78 17.81 -43.36 35.34 40.45 27.5 -40.67c2.49,30.07 4.13,65.92 5.32,94.36z"/>
    <path class="fil3" d="M2439.44 1306.87l-22.49 -78.48c6.54,-0.99 30,-70.21 58.86,23.43 9.59,31.14 -16.32,40.4 -36.37,55.05z"/>
    <path class="fil3" d="M2854.69 3214.95c-14.63,21.82 -20.69,45.56 -52.5,36.19 -84.86,-24.99 -29.49,-50.86 -27.53,-61.65l80.03 25.46z"/>
    <path class="fil3" d="M5253.01 4689.48l-55.33 -20.87 26.34 -26.2 84.48 -29.28c4.34,-1.3 12.22,-3.44 18.46,-4.52l-73.95 80.87z"/>
    <path class="fil3" d="M3904.83 3495.17c-74.57,31.28 -11.57,50.18 -91.1,-22.89 56.12,-31.19 71.28,-47.83 91.1,22.89z"/>
    <path class="fil3" d="M3402.67 3070.29c-29.16,0.81 2.3,45.94 -48.07,-8.46 -36.74,-39.66 -11.31,-10.82 -17.1,-49.18 1.91,0.24 64.72,-49.87 65.17,57.64z"/>
    <path class="fil3" d="M5543.06 5142.78c70.82,37.04 59.04,15 40.69,80.61 -84.9,-20.84 -63.99,-15.25 -40.69,-80.61z"/>
    <path class="fil3" d="M5655.85 5171.29c-83.64,-17.38 -50.82,-26.88 -44.96,-73.31 41.65,7 -4.57,-61.4 45.14,17.81 16.02,25.54 18.93,28.57 -0.18,55.5z"/>
    <path class="fil3" d="M3936.73 3434.87c-66.12,-16.73 -41.4,11.03 -59.66,-57.11 119.68,-45.83 58.01,44.95 59.66,57.11z"/>
    <path class="fil3" d="M2946.62 2605.12c-66.48,-90.07 -45.47,-28.16 -2,-99.74 50.74,75.59 55.8,24.57 2,99.74z"/>
    <path class="fil3" d="M2988.43 2617.96c14.23,-29.16 14.6,-4.88 13.63,-44.31l34.59 36.01c4.29,1.99 32.31,20.4 35.23,24.61 34.69,50.17 23.41,-0.16 23.82,52.54l-107.27 -68.85z"/>
    <path class="fil3" d="M2785.73 2029.84l-26.75 -55.54 -12.45 -14.01c59.04,-31.68 17.81,-24.06 73.37,-11.36 4.04,78.3 9.17,6.91 -34.17,80.91z"/>
    <path class="fil3" d="M5197.68 4668.61c-89.62,-19.43 -58.29,-12.78 -36.6,-69.23 57.07,13.55 20.88,-2.93 62.94,43.03l-26.34 26.2z"/>
    <path class="fil3" d="M1882.59 713.28l-41.42 -59.37c55.84,-21.91 15.4,-61.61 83.15,16.93l-41.73 42.44z"/>
    <path class="fil3" d="M507.9 93.14l-65.17 75.47c-5.05,-68.92 -5.4,-19.69 15.35,-82.56l27.88 -42.32 21.94 49.41z"/>
    <path class="fil3" d="M416.26 250.38c-18.51,64.04 -12.63,73.67 -88.11,30.71 66.25,-60.66 11.34,-39.73 88.11,-30.71z"/>
    <path class="fil3" d="M2554.32 2445.47c-39.91,-59.9 -37.71,-2.25 -21.65,-61.32 19.65,-72.27 30.08,-18.49 40.82,-22.09 14.46,66.52 34.36,6.73 -19.17,83.41z"/>
    <polygon class="fil3" points="6230.36,5477.63 6172.74,5421.32 6181.32,5364.11 6208.8,5414.72 6234.27,5363.94 "/>
    <path class="fil3" d="M5779.81 4696.8l-48.35 -62.3 28.68 -43.47c51.71,46.24 34.28,38.66 19.67,105.77z"/>
    <path class="fil3" d="M4175.7 3857.71c-77.84,-50.45 -53,-15.43 -40.04,-81.67 37.38,6.26 7.22,-41.49 38.62,13.96 52.51,92.76 -9.22,-11.83 1.42,67.71z"/>
    <path class="fil3" d="M3324.08 3190.32c-47.72,34.24 -9.83,35.08 -56.86,19.84 -86.15,-27.93 -13.88,-16.12 -20.45,-42.14 38,-5.23 -0.69,-42.64 77.31,22.3z"/>
    <path class="fil3" d="M2954.37 3074.6c-56.42,-54.19 15.94,27.5 -32.29,-32.39l-13.31 -35.55c10.95,-6.33 3.28,-52.69 47.94,0.27 45.84,54.34 24.2,-1.92 -2.34,67.67z"/>
    <path class="fil3" d="M4000.91 3410.99l-38.32 -49.76c13.39,-11.01 6.53,-56.46 46.47,-22.88 39.36,33.1 28.69,31.9 -8.15,72.64z"/>
    <path class="fil3" d="M679.75 559.41c-34.93,4.29 1.5,54.46 -59.94,-9.74 -48.49,-50.66 -7.61,-7.07 0.23,-47.43 42.53,11.07 45.4,12.02 59.71,57.17z"/>
    <path class="fil3" d="M5865.95 4701.64c-59.23,-48.2 -73.06,-24.31 -20.86,-78.39 24.53,11.97 7.28,-61.05 31,24.16 6.57,23.6 6.42,31.39 -10.14,54.23z"/>
    <path class="fil3" d="M715.52 517.86c-64.32,-51.32 -45.84,-17.5 -41.43,-80.72 36.14,1.03 6.1,-47.11 40.31,9.87 58.55,97.55 -8.58,-10.59 1.12,70.85z"/>
    <path class="fil3" d="M1927.6 1203.6c-27.04,-17.1 -30.01,3.04 -49.18,-64.68 67.32,-49.94 64.11,-1.53 49.18,64.68z"/>
    <path class="fil3" d="M5704.86 4678.19l-41.84 -37.01c30.33,-0.02 48.92,-3.88 68.44,-6.68l48.35 62.3c-6.89,-0.95 -12.25,-6.46 -20.74,-2.41 -8.13,3.88 -15.07,-2.38 -19.64,-3.72 -4.99,-1.46 -28,-9.32 -34.57,-12.48z"/>
    <path class="fil3" d="M4861.17 4090.48c-90.68,35.65 -98.31,23.45 -47.76,-60.29l47.76 60.29z"/>
    <path class="fil3" d="M1375.56 771.29c-31.34,-7.75 9.43,46.08 -44.31,-19.51 -44.14,-53.87 -8.18,13.51 -12.73,-39.66 37.92,-5.02 95.96,7.82 57.04,59.17z"/>
    <path class="fil3" d="M5636.86 4732.27l38.64 31.43c-16.68,82.36 -48.49,19.02 -84.2,-17.02l45.56 -14.41z"/>
    <path class="fil3" d="M1850.53 1225.94c-67.24,-21.86 -52.95,-1.98 -44.03,-72.43 32.2,10.11 4.59,-60.67 44.08,23.18 34.66,73.62 -9.65,-17.15 -0.05,49.25z"/>
    <path class="fil3" d="M5723.23 5175.18l-41.85 -55.2c65.62,-41.88 16.46,-31.52 80.92,-2.33l-39.07 57.53z"/>
    <path class="fil3" d="M1765.33 838.65c-32.9,19.14 -30.04,40.49 -66.5,19.94 -72.18,-40.7 -11.73,-28.07 -1.71,-52l68.21 32.06z"/>
    <path class="fil3" d="M5784.65 5841.75l-35.57 -66.49c62.88,-18.16 -1.97,-40.87 81.48,16.9l-9.51 6.64 -36.4 42.95z"/>
    <path class="fil3" d="M3827.76 3562.61c64.03,-52.65 22.25,-35.76 89.6,-0.42 -72.71,50.44 -31.25,55.75 -89.6,0.42z"/>
    <path class="fil3" d="M5682.06 4708.74l-47.35 -45.39 28.31 -22.17 41.84 37.01c62.99,54.77 -9.9,33.39 -22.8,30.55z"/>
    <path class="fil3" d="M2388.66 2558.56c-56.31,-8.71 -49.74,36.18 -59.42,-56.89 26.9,0.66 -14.44,-35.23 43.46,10 77.58,60.6 9.94,0.79 15.96,46.89z"/>
    <path class="fil3" d="M2136.58 1743.15l42.78 44.19c-11.83,53.87 13.96,46.19 -64.62,10.17 -0.56,-44.38 -8.24,-11.24 21.84,-54.36z"/>
    <path class="fil3" d="M2896.3 2620.6c-31.66,-0.25 -5.85,21.86 -46.86,-9.77 -74.45,-57.4 -10.25,-1.07 -13.74,-48.24 50.32,8.89 40.77,-31.25 60.6,58.01z"/>
    <path class="fil3" d="M5997.03 5486.17c-9.36,-34.83 -16.73,-17.34 -7.99,-48.96l18.86 -24.21c25.51,10.69 -12.93,43.22 45.86,-14.07l13.92 24.88 -70.65 62.36z"/>
    <path class="fil3" d="M2233.65 1778.27l-33.58 -37.53c4.94,-55.08 -66.38,32.68 5.15,-30.03 35.05,-30.73 -0.36,-10.46 38.12,-15.91 21.58,62.28 24.65,13.8 -9.69,83.47z"/>
    <path class="fil3" d="M5322.62 4584.64c-37.48,-66.43 -31.77,-18.89 -8.55,-81.09 41.9,11.98 -10.04,-49.92 47.75,40.73l-39.2 40.36z"/>
    <path class="fil3" d="M1087.82 503.18c-37.7,-6.09 -9.32,25.92 -57.81,-34.17 52.3,-27.73 31.35,-25.04 87.2,-9.91l-29.39 44.08z"/>
    <path class="fil3" d="M3463.1 3553.58l-59.56 -58.91c43.71,2.07 -12.26,-31.09 75.06,14.37l26.12 24.65 -41.62 19.89z"/>
    <path class="fil3" d="M3464.04 3075.59c-84.25,-70.99 -29.92,-27.22 -34.35,-65.53 2.59,0.23 78.29,-72.16 34.35,65.53z"/>
    <path class="fil3" d="M5917.29 5788.27l28.37 -33.09c22.97,4.6 19.28,-70.42 34.47,32.87l-27.5 40.67 -35.34 -40.45z"/>
    <path class="fil3" d="M3372.16 3725.22c68.76,-37.35 41.6,-58.43 84.62,-2.21 -39.02,27.37 26.77,65.57 -84.62,2.21z"/>
    <path class="fil3" d="M4122.99 4018.26l53.95 35.93 -65.87 30.45c-18.04,-50.19 -52.32,-20.07 11.92,-66.38z"/>
    <path class="fil3" d="M3504.72 3533.69l-26.12 -24.65c-1.28,-52.34 -58.09,21.87 13.09,-59.24l42.04 56.48 -29.01 27.41z"/>
    <path class="fil3" d="M4586.55 3811.3c-48.91,61.92 -51.12,37.81 -71.16,9.02 -2.23,-3.21 -4.49,-12.74 -6.3,-19.24 61.43,-20.59 -5.09,-27.5 77.46,10.22z"/>
    <polygon class="fil3" points="1169.52,273.35 1190.22,224.66 1236.74,276.38 1209.53,309.25 "/>
    <path class="fil3" d="M5173.35 4230.07c-83.97,-36.59 -40.44,-21.49 -25.28,-59.56l62.39 23.15 -37.11 36.41z"/>
    <path class="fil3" d="M5540.42 5308.07c-59.03,-37.1 -37.23,5.9 -27.9,-58.03 42.27,-4.86 18,-3.23 65.54,20.16l-37.64 37.87z"/>
    <path class="fil3" d="M5675.5 4763.7l-38.64 -31.43 -2.15 -68.92 47.35 45.39c0.1,7.64 -6.16,48.02 -6.56,54.96z"/>
    <path class="fil3" d="M5355.66 4097.44c-44.56,-62.65 -29.92,-16.34 -12.16,-72.91 47.58,11.65 24.39,-32.21 41.66,42.71l-29.5 30.2z"/>
    <path class="fil3" d="M1775.45 759.95l-44.96 -41.83c6.76,-29.22 11.32,-5.16 8.24,-51.81l52.8 51.79 -16.08 41.85z"/>
    <path class="fil3" d="M1824.16 1348.97c-80.49,54.02 -18.46,36.23 -95.25,11.51 83.49,-55.37 19.69,-41.01 95.25,-11.51z"/>
    <path class="fil3" d="M2234.03 1389.17c-69.89,-44.63 -37.35,-23.67 -26.78,-63.98l63.71 28.69 -36.93 35.29z"/>
    <path class="fil3" d="M2179.36 1787.34l-42.78 -44.19 63.49 -2.41 33.58 37.53c-23.14,2.99 -33.43,8.93 -54.29,9.07z"/>
    <path class="fil3" d="M1324.22 955.85l-64.92 41.9c-3.79,-22.19 -68.56,-24.93 10.04,-49.83 46.38,-14.69 -1.81,-11.32 54.88,7.93z"/>
    <polygon class="fil3" points="6181.32,5364.11 6216.46,5315.84 6234.27,5363.94 6208.8,5414.72 "/>
    <path class="fil3" d="M2423.33 2452.65l-8.17 -53.2 34.81 3.53 30.63 35.73c-7.28,-0.27 -48.74,55.09 -39.43,6.66 0.76,-3.95 -11.7,5.38 -17.84,7.28z"/>
    <path class="fil3" d="M2822.51 2697.65c-81,-65.11 -30.99,-10.81 -27.63,-67.15l62.66 35.79 -35.03 31.36z"/>
    <path class="fil3" d="M458.08 86.05c-90.32,-86.59 -30.65,-24.98 -27.31,-67.76l55.19 25.44 -27.88 42.32z"/>
    <path class="fil3" d="M6007.9 5413l-18.86 24.21c-44.06,-12.47 -37.44,-15.78 -46.65,-52.19 54.9,-2.02 -15.35,-51.68 65.51,27.98z"/>
    <path class="fil3" d="M4782.7 4296.14l-59.84 43.97c-2.39,-38.09 -68.56,-13.62 8.27,-50.16 48.61,-23.12 -4.55,-13.34 51.57,6.19z"/>
    <path class="fil3" d="M654.03 729.81c4.33,-15.35 -73.03,-22.07 50.84,-53.12 4.11,37.93 19.46,-0.12 -14.44,42.76l-36.4 10.36z"/>
    <polygon class="fil3" points="2326.76,1763.65 2267.75,1732.71 2316.85,1680.02 "/>
    <path class="fil3" d="M5185.72 4751.55c-96.13,-18.89 -27.53,-11.19 -37.06,-35.47 47.48,-16.57 22.47,-15.09 68.55,0.04l-31.49 35.43z"/>
    <path class="fil3" d="M2810.71 2085.1l-61.7 -52.9c0.46,-8.78 9.14,-49.77 9.97,-57.9l26.75 55.54 24.98 55.26z"/>
    <path class="fil3" d="M3036.65 2609.66l-34.59 -36.01 52.41 -35.89c7.69,49.6 7.61,24.7 -17.82,71.9z"/>
    <path class="fil3" d="M2234.03 1389.17l36.93 -35.29 21.32 13.42c35.03,13.4 23.88,3.93 -8.25,32.81 -43.44,5.06 -7.29,1.02 -50,-10.94z"/>
    <path class="fil3" d="M2275.88 1777.01c-51.03,-50.27 -12.52,-3.06 -8.13,-44.3l59.01 30.94 12.71 15.48 -63.59 -2.12z"/>
    <path class="fil3" d="M5373.99 4597.26c-24.71,25.81 -11.96,25.13 -38.3,0.06l-13.07 -12.68 39.2 -40.36c1.48,13.13 11.35,46.67 12.17,52.98z"/>
    <path class="fil3" d="M1930.17 726.28l-63.05 3.6 15.47 -16.6 41.73 -42.44c4.01,26.63 10.76,33.71 5.85,55.44z"/>
    <polygon class="fil3" points="3522.86,3558.05 3504.72,3533.69 3533.73,3506.28 3577.36,3531.13 "/>
    <path class="fil3" d="M2577.07 2042.52c-50.39,-10.12 36.33,65.22 -30.76,-8.79 -25.94,-28.6 -15.12,-16.71 -23.17,-42.84 6.76,0.81 22.92,-4.8 20.32,1.99 -2.22,5.81 14.69,2.73 16.74,5.13 36.66,42.8 12.11,3.31 16.87,44.51z"/>
    <path class="fil3" d="M5228.53 4770.28l-42.81 -18.73 31.49 -35.43 10.99 -12.2c11.12,35.46 18.48,11.55 0.33,66.36z"/>
    <path class="fil3" d="M4684.12 3635.58c-62.41,-0.21 35.22,78.69 -33.94,-3.11 -34.3,-40.58 -12.21,-2.85 -17.51,-46.14 69.23,18.55 47.69,36.84 51.45,49.25z"/>
    <polygon class="fil3" points="2848.27,2736.27 2822.51,2697.65 2857.54,2666.29 2875.65,2682.71 "/>
    <path class="fil3" d="M5173.35 4230.07l37.11 -36.41 12.84 15.49c21.57,24.93 21.02,12.4 -2.94,37.43 -28.11,-14.59 -3.53,-13.79 -47.01,-16.51z"/>
    <path class="fil3" d="M5720.72 5835.07l25.55 59.81 -36.3 -8.94c-11.81,-38.14 -47.18,10.9 10.75,-50.87z"/>
    <path class="fil3" d="M5421.19 4118.72l-79.04 -7.7 13.51 -13.58 29.5 -30.2c13.12,44.46 -6.6,21.4 36.03,51.48z"/>
    <polygon class="fil3" points="5540.42,5308.07 5578.06,5270.2 5585.15,5285.62 5580.83,5325.23 "/>
   </g>
  </g>
 </g>
</svg>
