<?xml version="1.0" encoding="UTF-8"?>
<!DOCTYPE svg PUBLIC "-//W3C//DTD SVG 1.1//EN" "http://www.w3.org/Graphics/SVG/1.1/DTD/svg11.dtd">
<!-- Creator: CorelDRAW -->
<svg xmlns="http://www.w3.org/2000/svg" xml:space="preserve" width="52.2mm" height="28mm" version="1.1" style="shape-rendering:geometricPrecision; text-rendering:geometricPrecision; image-rendering:optimizeQuality; fill-rule:evenodd; clip-rule:evenodd"
viewBox="0 0 5220 2800"
 xmlns:xlink="http://www.w3.org/1999/xlink"
 xmlns:xodm="http://www.corel.com/coreldraw/odm/2003">
 <defs>
  <style type="text/css">
   <![CDATA[
    .fil3 {fill:#018983}
    .fil0 {fill:#28CCCC}
    .fil1 {fill:#FC655D}
    .fil2 {fill:#FDA29D}
   ]]>
  </style>
 </defs>
 <g id="Camada_x0020_1">
  <metadata id="CorelCorpID_0Corel-Layer"/>
  <g id="_2568572840736">
   <g>
    <path class="fil0" d="M2614.27 24.3c-0.83,24.57 -35.4,164.48 -45.28,209.34l-10.71 51.6c0.85,16.15 2.69,10.23 7.09,14.81 22.63,-0.26 51.1,-55.11 69.55,-84.01 32.75,-47.14 61.58,-91.32 92.96,-136.72 14.13,-20.44 40.23,-59.55 -9.18,-65.33 -39.26,-4.6 -76.85,-2.9 -104.43,10.31z"/>
    <path class="fil1" d="M2463.4 284.85c9.5,6.42 17.85,3.67 16.19,-8.55 -14.84,-125.29 -11.49,-121.47 -65.29,-116.4 -54.77,5.17 -40.52,28.48 -17.62,53.93 17.1,19.01 46.68,57.47 66.72,71.02z"/>
   </g>
   <g>
    <path class="fil0" d="M3045.76 2809.28c256.01,-19.52 613.85,-80.57 821.35,-177.26 223.9,-104.34 309.11,-168.05 483.04,-298.15 188.16,-156.65 294.05,-322.7 396.15,-514.89 82.51,-232.96 138.86,-362.27 99.25,-611.18 -12.15,-76.36 -36.96,-129.65 -73.19,-202.1 -91.3,-102.35 -210.83,-163.88 -283.85,-204.27 -165.39,-91.44 -261.73,-143.49 -469.79,-209.31 -21.59,-6.83 -115.02,-30.95 -124.66,-40.05 -25.93,-2.11 -26.29,-2.77 -52.19,-9.75 -116.85,-25.41 -201.33,-43.5 -331.78,-61.62 -125.11,-17.38 -261.34,-25.49 -393.29,-27.59 -269.02,-4.28 -529.03,22.27 -779.79,64.54 -302.32,39.6 -672.61,147.58 -973.41,275.1 -398.61,168.95 -872.36,476.6 -980.14,779.78 -26.82,75.48 -32.36,147.6 -10.71,226.01 15.88,57.49 70.43,140.69 119.15,170.24l-21.11 9.11c19.85,15.97 72.44,40.46 107.07,55.69 40.75,17.93 81.05,31.62 126.95,46.05 102.03,32.08 182.94,41.22 303.15,55.71 126.36,2.54 258.36,6.38 391,6.98 175.26,8.26 338.26,15.44 474.31,106.16 41.1,27.42 70.33,47.65 107.3,82.2 96.82,90.47 161.1,186.26 278.09,274.78 227.44,172.05 437.96,210.49 787.1,203.82z"/>
    <path class="fil2" d="M1037.96 2317.69c18.09,54.54 37.24,89.79 79.6,142.12 164.81,203.76 464.24,302.87 812.9,331.21 81.68,6.64 420.96,1.17 480.44,-14.74 -52.75,-4.8 -239.53,-67.2 -302.45,-128.35 -71.45,-69.44 -98.27,-194.31 -143.68,-236.87l-21.14 -19.84c-77.17,-70.81 -220.68,-122.37 -351.73,-143.74 -160.58,-26.18 -415.78,-42.4 -553.94,70.21z"/>
    <path class="fil2" d="M605.82 685.43c-17.66,21.47 -32.82,41.43 -39.34,60.54 -13.07,38.34 -30.35,65.81 -29.89,118.55 7.88,-1.39 226.43,-121.27 235.68,-126.1 379.74,-199.57 874.42,-267.95 1343.59,-320.64l259.06 -29.13c38.67,-2.7 38.64,1.81 49.33,9.28 39.14,-7.05 86.52,-3.87 105.02,-12.24 -180.58,-37.72 -588.89,-57.95 -783.37,-53.76 -217.84,4.69 -515.76,38.96 -756.15,119.78 -171.93,57.81 -311.91,146.13 -383.93,233.72z"/>
    <path class="fil1" d="M1014.64 2196.4l23.32 121.29c134.96,-98.04 359.97,-101.84 553.94,-70.21 131.05,21.37 274.56,72.93 351.73,143.74l21.14 19.84c45.41,42.56 72.23,167.43 143.68,236.87 52.04,50.59 132.78,93.38 213.97,116.87 80.62,23.35 132.86,5.72 214.51,-10.19 -11.45,-5.45 -30.47,-11.18 -44.26,-17.41 -95.57,-43.2 -162.18,-77.39 -234.01,-131.74 -116.99,-88.52 -181.27,-184.31 -278.09,-274.78 -36.97,-34.55 -66.2,-54.78 -107.3,-82.2 -198.29,-132.24 -602.97,-107.87 -865.31,-113.14l6.68 61.06z"/>
    <g>
     <path class="fil1" d="M664.52 2195.07c34,-1.63 48.49,7.54 78.91,9.24 30.49,1.7 59.92,-11.99 35.57,-29.49 -23.32,-16.75 -326.25,-19.53 -558.21,-221.59 -22.38,-19.5 -49.74,-50.14 -66.79,-76.15 -20.01,-30.52 -22.35,-73.05 -73.19,-64.48 -30.43,30.73 44.38,109.2 68.91,135.72 172.76,186.83 480.31,229.52 514.8,246.75z"/>
     <path class="fil1" d="M50 1962.91c-20.81,50.04 119.39,139.24 144.43,164.75 46.55,11.29 108.97,67.17 180.19,56.42 13.58,-60.72 -80.07,-5.11 -244.69,-171.66 -21.74,-22 -26.27,-56.59 -79.93,-49.51z"/>
     <path class="fil1" d="M73.35 1753.53c17.07,-28.51 -15.38,-77.33 -19.42,-114.04 -4.81,-43.61 14.83,-93.11 10.06,-124.3 -12.77,-5.93 1.19,-0.33 -18.1,-6.73l-29.2 0.33c-16.9,40.52 -25.32,94.55 -17.69,141.05 3.68,22.55 9.34,46.59 17.28,67.49 12.46,32.76 13.73,34.84 57.07,36.2z"/>
    </g>
    <g>
     <path class="fil1" d="M4483.92 2485.61c50.96,6.44 61.34,-19.15 91.52,-37.08l75.78 -51.83c264.49,-213.66 410.49,-419.91 495.84,-700.25 14.93,-49.04 67.47,-352.21 29.54,-376.85 -15.68,-10.2 -37.53,-5.46 -43.8,8.42l-4.71 151.34c-26.42,342.87 -188.93,629.06 -514.17,888.63 -66.4,53 -140.87,81.05 -130,117.62z"/>
     <path class="fil1" d="M3894.06 2769.2c50.53,4.06 21.32,9.66 101.85,-20.87 32.68,-12.39 69.35,-24.96 101.54,-39.89l137.58 -62.29c18.12,-8.31 36.58,-15.49 48.92,-22.52l-3.1 -26.93c-26.43,-1.56 -38.19,0.74 -56.86,9.51 -127.96,60.15 -186.06,84.28 -329.77,139.47l-0.16 23.52z"/>
     <path class="fil1" d="M5073.18 1023.06c13.2,23.33 24.63,80.13 30.93,109.24 9.39,43.36 -4.57,99.55 63.41,89.97 20.05,-51.57 -34.72,-136.66 -27.05,-186.94 -21.82,-18.32 -17.35,-63.04 -45.01,-85.26 -64.68,-1.21 -32.5,38.47 -22.28,72.99z"/>
     <path class="fil1" d="M4373.64 2565.67c73.38,3.39 67.01,-40.84 33.77,-49.15 -37.81,-9.47 -84.69,16.55 -33.77,49.15z"/>
    </g>
    <path class="fil1" d="M1759.85 502.32c234.81,-52.56 426.68,-73.12 664.4,-104.39 -10.69,-7.47 -10.66,-11.98 -49.33,-9.28l-259.06 29.13c-444.36,49.91 -924.37,115.1 -1304.53,298.25 -79,38.07 -209.03,104.72 -276.29,148.35 -2.79,42.57 8.37,79.07 28,126.77 31.65,-8.68 157.93,-27.97 187.21,-48.12 239.27,-164.6 655.9,-361.53 1009.6,-440.71z"/>
    <path class="fil3" d="M1160.16 679.68c-303.31,122.26 -510.85,232.13 -725.07,410.46 -119.79,107.36 -227.64,229.45 -259.42,370.59 -43.76,194.37 81.71,399.29 295.12,517.16l21.11 -9.11c-48.72,-29.55 -103.27,-112.75 -119.15,-170.24 -21.65,-78.41 -16.11,-150.53 10.71,-226.01 95.07,-267.44 471.25,-527.5 786.99,-685.51 223.31,-111.75 498.39,-212.27 738.9,-273.58 122.96,-31.36 289.23,-77.66 427.66,-95.79 250.76,-42.27 510.77,-68.82 779.79,-64.54 131.95,2.1 268.18,10.21 393.29,27.59 180.48,25.07 344.52,59.48 508.63,111.42 237.87,75.25 643.56,283.36 764.01,434.32l-10.37 -20.74c-60.98,-150.32 -300.19,-316.79 -498.26,-405.67 -397.03,-178.23 -954.67,-232.3 -1411.69,-228.49 -279.12,2.39 -519.87,33.6 -789.43,73.52 -161.09,23.85 -317.01,52.79 -493.38,101.24 -145.82,40.04 -283.07,82.87 -419.44,133.38z"/>
   </g>
  </g>
 </g>
</svg>
