<?xml version="1.0" encoding="UTF-8"?>
<!DOCTYPE svg PUBLIC "-//W3C//DTD SVG 1.1//EN" "http://www.w3.org/Graphics/SVG/1.1/DTD/svg11.dtd">
<!-- Creator: CorelDRAW -->
<svg xmlns="http://www.w3.org/2000/svg" xml:space="preserve" width="100mm" height="45mm" version="1.1" style="shape-rendering:geometricPrecision; text-rendering:geometricPrecision; image-rendering:optimizeQuality; fill-rule:evenodd; clip-rule:evenodd"
viewBox="0 0 10000 4500"
 xmlns:xlink="http://www.w3.org/1999/xlink"
 xmlns:xodm="http://www.corel.com/coreldraw/odm/2003">
 <defs>
  <style type="text/css">
   <![CDATA[
    .fil0 {fill:#018983}
    .fil2 {fill:#63DADA}
    .fil3 {fill:#6FBCAA}
    .fil1 {fill:#B0ECEC}
   ]]>
  </style>
 </defs>
 <g id="Camada_x0020_1">
  <metadata id="CorelCorpID_0Corel-Layer"/>
  <g id="_2568494064688">
   <path class="fil0" d="M42.25 4393.51c1230.4,-1476.24 5054.54,-4029.03 9907.9,-4279.41l0 4279.41 -9907.9 0z"/>
   <path class="fil1" d="M9950.15 4393.51l0 -3992.29c-2157.76,242.56 -6348.92,1504.98 -7811.14,3992.29l7811.14 0z"/>
   <path class="fil2" d="M9950.15 4393.51l0 -3992.29c-2157.32,242.51 -6030.56,1589.89 -7610.08,3992.29l7610.08 0z"/>
   <path class="fil3" d="M9950.15 1513.35c-82.03,25.31 -169.18,38.95 -259.52,38.95 -485.55,0 -879.17,-393.62 -879.17,-879.17 0,-174.44 50.81,-337.03 138.44,-473.75 328.13,-38.75 661.57,-67.81 1000.25,-85.28l0 1399.25z"/>
   <path class="fil0" d="M6695.55 4393.51c-3.47,-43.12 -11.14,-57.18 -42.96,-84.33 -28.01,-23.89 -60.14,-34.46 -95.72,-39.07l-1647.02 -0.2c-65.41,8.35 -129.67,47.82 -137.37,123.6l1923.07 0z"/>
  </g>
 </g>
</svg>
